{"glyphs":{"0":{"ha":810,"x_min":116,"x_max":694,"o":"m 116 0 l 116 810 l 231 810 l 231 926 l 579 926 l 579 810 l 694 810 l 694 0 l 579 0 l 579 -116 l 231 -116 l 231 0 l 116 0 m 231 0 l 579 0 l 579 810 l 231 810 l 231 0 z "},"1":{"ha":694,"x_min":116,"x_max":463,"o":"m 231 579 l 116 579 l 116 694 l 231 694 l 231 810 l 347 810 l 347 926 l 463 926 l 463 -116 l 347 -116 l 347 694 l 231 694 l 231 579 z "},"2":{"ha":810,"x_min":116,"x_max":694,"o":"m 347 116 l 231 116 l 231 0 l 694 0 l 694 -116 l 116 -116 l 116 116 l 231 116 l 231 231 l 347 231 l 347 347 l 463 347 l 463 463 l 579 463 l 579 810 l 231 810 l 231 579 l 116 579 l 116 810 l 231 810 l 231 926 l 579 926 l 579 810 l 694 810 l 694 463 l 579 463 l 579 347 l 463 347 l 463 231 l 347 231 l 347 116 z "},"3":{"ha":810,"x_min":116,"x_max":694,"o":"m 116 0 l 116 116 l 231 116 l 231 0 l 579 0 l 579 347 l 231 347 l 231 463 l 347 463 l 347 579 l 463 579 l 463 694 l 579 694 l 579 810 l 116 810 l 116 926 l 694 926 l 694 694 l 579 694 l 579 579 l 463 579 l 463 463 l 579 463 l 579 347 l 694 347 l 694 0 l 579 0 l 579 -116 l 231 -116 l 231 0 l 116 0 z "},"4":{"ha":810,"x_min":0,"x_max":694,"o":"m 0 231 l 116 231 l 116 463 l 231 463 l 231 694 l 347 694 l 347 926 l 579 926 l 579 231 l 694 231 l 694 116 l 579 116 l 579 -116 l 463 -116 l 463 116 l 0 116 l 0 231 m 347 463 l 231 463 l 231 231 l 463 231 l 463 694 l 347 694 l 347 463 z "},"5":{"ha":810,"x_min":116,"x_max":694,"o":"m 116 0 l 116 231 l 231 231 l 231 0 l 579 0 l 579 463 l 116 463 l 116 926 l 694 926 l 694 810 l 231 810 l 231 579 l 579 579 l 579 463 l 694 463 l 694 0 l 579 0 l 579 -116 l 231 -116 l 231 0 l 116 0 z "},"6":{"ha":810,"x_min":116,"x_max":694,"o":"m 694 0 l 579 0 l 579 -116 l 231 -116 l 231 0 l 116 0 l 116 694 l 231 694 l 231 810 l 347 810 l 347 926 l 579 926 l 579 810 l 347 810 l 347 694 l 231 694 l 231 579 l 579 579 l 579 463 l 694 463 l 694 0 m 231 0 l 579 0 l 579 463 l 231 463 l 231 0 z "},"7":{"ha":810,"x_min":116,"x_max":694,"o":"m 116 926 l 694 926 l 694 579 l 579 579 l 579 347 l 463 347 l 463 116 l 347 116 l 347 -116 l 231 -116 l 231 116 l 347 116 l 347 347 l 463 347 l 463 579 l 579 579 l 579 810 l 116 810 l 116 926 z "},"8":{"ha":810,"x_min":116,"x_max":694,"o":"m 116 0 l 116 347 l 231 347 l 231 463 l 116 463 l 116 810 l 231 810 l 231 926 l 579 926 l 579 810 l 694 810 l 694 463 l 579 463 l 579 347 l 694 347 l 694 0 l 579 0 l 579 -116 l 231 -116 l 231 0 l 116 0 m 579 810 l 231 810 l 231 463 l 579 463 l 579 810 m 231 0 l 579 0 l 579 347 l 231 347 l 231 0 z "},"9":{"ha":810,"x_min":116,"x_max":694,"o":"m 116 810 l 231 810 l 231 926 l 579 926 l 579 810 l 694 810 l 694 116 l 579 116 l 579 0 l 463 0 l 463 -116 l 231 -116 l 231 0 l 463 0 l 463 116 l 579 116 l 579 231 l 231 231 l 231 347 l 116 347 l 116 810 m 579 810 l 231 810 l 231 347 l 579 347 l 579 810 z "}," ":{"ha":463,"x_min":0,"x_max":0,"o":""},"!":{"ha":463,"x_min":116,"x_max":231,"o":"m 116 0 l 231 0 l 231 -116 l 116 -116 l 116 0 m 231 116 l 116 116 l 116 926 l 231 926 l 231 116 z "},"\"":{"ha":694,"x_min":116,"x_max":463,"o":"m 463 579 l 347 579 l 347 1042 l 463 1042 l 463 579 m 231 579 l 116 579 l 116 1042 l 231 1042 l 231 579 z "},"#":{"ha":810,"x_min":0,"x_max":694,"o":"m 0 579 l 0 694 l 116 694 l 116 926 l 231 926 l 231 694 l 463 694 l 463 926 l 579 926 l 579 694 l 694 694 l 694 579 l 579 579 l 579 231 l 694 231 l 694 116 l 579 116 l 579 -116 l 463 -116 l 463 116 l 231 116 l 231 -116 l 116 -116 l 116 116 l 0 116 l 0 231 l 116 231 l 116 579 l 0 579 m 463 579 l 231 579 l 231 231 l 463 231 l 463 579 z "},"$":{"ha":810,"x_min":0,"x_max":694,"o":"m 231 -231 l 231 -116 l 116 -116 l 116 0 l 231 0 l 231 116 l 231 231 l 231 347 l 116 347 l 116 463 l 0 463 l 0 579 l 0 694 l 0 810 l 116 810 l 116 926 l 231 926 l 347 926 l 347 1042 l 463 1042 l 463 926 l 579 926 l 579 810 l 694 810 l 694 694 l 579 694 l 579 810 l 463 810 l 463 694 l 463 579 l 463 463 l 579 463 l 579 347 l 694 347 l 694 231 l 694 116 l 694 0 l 579 0 l 579 116 l 579 231 l 579 347 l 463 347 l 347 347 l 347 231 l 347 116 l 347 0 l 463 0 l 579 0 l 579 -116 l 463 -116 l 347 -116 l 347 -231 l 231 -231 m 116 0 l 0 0 l 0 116 l 116 116 l 116 0 m 231 463 l 347 463 l 347 579 l 347 694 l 347 810 l 231 810 l 116 810 l 116 694 l 116 579 l 116 463 l 231 463 z "},"%":{"ha":926,"x_min":0,"x_max":810,"o":"m 116 579 l 0 579 l 0 810 l 116 810 l 116 926 l 347 926 l 347 810 l 463 810 l 463 579 l 579 579 l 579 694 l 694 694 l 694 810 l 810 810 l 810 694 l 694 694 l 694 579 l 579 579 l 579 463 l 463 463 l 463 347 l 694 347 l 694 231 l 810 231 l 810 0 l 694 0 l 694 -116 l 463 -116 l 463 0 l 347 0 l 347 231 l 231 231 l 231 116 l 116 116 l 116 0 l 0 0 l 0 116 l 116 116 l 116 231 l 231 231 l 231 347 l 347 347 l 347 463 l 116 463 l 116 579 m 347 579 l 347 463 l 463 463 l 463 579 l 347 579 l 347 810 l 116 810 l 116 579 l 347 579 m 463 231 l 463 0 l 694 0 l 694 231 l 463 231 l 463 347 l 347 347 l 347 231 l 463 231 z "},"&":{"ha":810,"x_min":0,"x_max":694,"o":"m 116 579 l 0 579 l 0 810 l 116 810 l 116 926 l 463 926 l 463 810 l 579 810 l 579 579 l 463 579 l 463 463 l 347 463 l 347 347 l 463 347 l 463 231 l 579 231 l 579 463 l 694 463 l 694 231 l 579 231 l 579 0 l 694 0 l 694 -116 l 579 -116 l 579 0 l 463 0 l 463 -116 l 116 -116 l 116 0 l 0 0 l 0 347 l 116 347 l 116 579 m 463 0 l 463 231 l 347 231 l 347 347 l 116 347 l 116 0 l 463 0 m 116 579 l 231 579 l 231 463 l 347 463 l 347 579 l 463 579 l 463 810 l 116 810 l 116 579 z "},"'":{"ha":463,"x_min":116,"x_max":231,"o":"m 231 579 l 116 579 l 116 1042 l 231 1042 l 231 579 z "},"(":{"ha":694,"x_min":116,"x_max":463,"o":"m 231 116 l 116 116 l 116 694 l 231 694 l 231 926 l 347 926 l 347 1042 l 463 1042 l 463 926 l 347 926 l 347 694 l 231 694 l 231 116 l 347 116 l 347 -116 l 463 -116 l 463 -231 l 347 -231 l 347 -116 l 231 -116 l 231 116 z "},")":{"ha":694,"x_min":116,"x_max":463,"o":"m 347 -116 l 231 -116 l 231 -231 l 116 -231 l 116 -116 l 231 -116 l 231 116 l 347 116 l 347 694 l 231 694 l 231 926 l 116 926 l 116 1042 l 231 1042 l 231 926 l 347 926 l 347 694 l 463 694 l 463 116 l 347 116 l 347 -116 z "},"*":{"ha":694,"x_min":0,"x_max":579,"o":"m 116 694 l 0 694 l 0 810 l 116 810 l 116 694 l 231 694 l 231 926 l 347 926 l 347 694 l 463 694 l 463 810 l 579 810 l 579 694 l 463 694 l 463 579 l 347 579 l 347 463 l 463 463 l 463 347 l 579 347 l 579 231 l 463 231 l 463 347 l 347 347 l 347 116 l 231 116 l 231 347 l 116 347 l 116 231 l 0 231 l 0 347 l 116 347 l 116 463 l 231 463 l 231 579 l 116 579 l 116 694 z "},"+":{"ha":926,"x_min":0,"x_max":810,"o":"m 0 347 l 0 463 l 347 463 l 347 810 l 463 810 l 463 463 l 810 463 l 810 347 l 463 347 l 463 0 l 347 0 l 347 347 l 0 347 z "},",":{"ha":463,"x_min":0,"x_max":231,"o":"m 0 -347 l 0 -231 l 116 -231 l 116 -116 l 116 0 l 231 0 l 231 -116 l 231 -231 l 116 -231 l 116 -347 l 0 -347 z "},"-":{"ha":810,"x_min":0,"x_max":694,"o":"m 0 347 l 0 463 l 694 463 l 694 347 l 0 347 z "},".":{"ha":463,"x_min":116,"x_max":231,"o":"m 116 0 l 231 0 l 231 -116 l 116 -116 l 116 0 z "},"/":{"ha":926,"x_min":116,"x_max":694,"o":"m 116 -231 l 116 0 l 231 0 l 231 231 l 347 231 l 347 463 l 463 463 l 463 694 l 579 694 l 579 926 l 694 926 l 694 694 l 579 694 l 579 463 l 463 463 l 463 231 l 347 231 l 347 0 l 231 0 l 231 -231 l 116 -231 z "},":":{"ha":463,"x_min":116,"x_max":231,"o":"m 116 463 l 116 579 l 231 579 l 231 463 l 116 463 m 116 -116 l 116 0 l 231 0 l 231 -116 l 116 -116 z "},";":{"ha":463,"x_min":0,"x_max":231,"o":"m 116 -347 l 0 -347 l 0 -231 l 116 -231 l 116 -116 l 116 0 l 231 0 l 231 -116 l 231 -231 l 116 -231 l 116 -347 m 116 463 l 116 579 l 231 579 l 231 463 l 116 463 z "},"<":{"ha":926,"x_min":116,"x_max":694,"o":"m 116 463 l 231 463 l 231 579 l 347 579 l 347 694 l 463 694 l 463 810 l 579 810 l 579 926 l 694 926 l 694 810 l 579 810 l 579 694 l 463 694 l 463 579 l 347 579 l 347 463 l 231 463 l 231 347 l 347 347 l 347 231 l 463 231 l 463 116 l 579 116 l 579 0 l 694 0 l 694 -116 l 579 -116 l 579 0 l 463 0 l 463 116 l 347 116 l 347 231 l 231 231 l 231 347 l 116 347 l 116 463 z "},"=":{"ha":810,"x_min":0,"x_max":694,"o":"m 0 463 l 0 579 l 694 579 l 694 463 l 0 463 m 0 231 l 0 347 l 694 347 l 694 231 l 0 231 z "},">":{"ha":926,"x_min":116,"x_max":694,"o":"m 347 0 l 231 0 l 231 -116 l 116 -116 l 116 0 l 231 0 l 231 116 l 347 116 l 347 231 l 463 231 l 463 347 l 579 347 l 579 463 l 463 463 l 463 579 l 347 579 l 347 694 l 231 694 l 231 810 l 116 810 l 116 926 l 231 926 l 231 810 l 347 810 l 347 694 l 463 694 l 463 579 l 579 579 l 579 463 l 694 463 l 694 347 l 579 347 l 579 231 l 463 231 l 463 116 l 347 116 l 347 0 z "},"?":{"ha":810,"x_min":0,"x_max":694,"o":"m 0 810 l 116 810 l 116 926 l 579 926 l 579 810 l 694 810 l 694 579 l 579 579 l 579 463 l 463 463 l 463 347 l 347 347 l 347 116 l 231 116 l 231 347 l 347 347 l 347 463 l 463 463 l 463 579 l 579 579 l 579 810 l 116 810 l 116 579 l 0 579 l 0 810 m 347 0 l 347 -116 l 231 -116 l 231 0 l 347 0 z "},"@":{"ha":926,"x_min":0,"x_max":810,"o":"m 116 116 l 231 116 l 231 0 l 694 0 l 694 -116 l 231 -116 l 231 0 l 116 0 l 116 116 l 0 116 l 0 694 l 116 694 l 116 810 l 231 810 l 231 926 l 694 926 l 694 810 l 810 810 l 810 231 l 694 231 l 694 116 l 347 116 l 347 231 l 231 231 l 231 579 l 347 579 l 347 694 l 694 694 l 694 810 l 231 810 l 231 694 l 116 694 l 116 116 m 347 231 l 694 231 l 694 579 l 347 579 l 347 231 z "},"A":{"ha":926,"x_min":0,"x_max":810,"o":"m 0 -116 l 0 116 l 116 116 l 116 463 l 231 463 l 231 694 l 347 694 l 347 926 l 463 926 l 463 694 l 579 694 l 579 463 l 694 463 l 694 116 l 810 116 l 810 -116 l 694 -116 l 694 116 l 116 116 l 116 -116 l 0 -116 m 347 463 l 231 463 l 231 231 l 579 231 l 579 463 l 463 463 l 463 694 l 347 694 l 347 463 z "},"B":{"ha":810,"x_min":0,"x_max":694,"o":"m 0 -116 l 0 926 l 579 926 l 579 810 l 694 810 l 694 463 l 579 463 l 579 347 l 694 347 l 694 0 l 579 0 l 579 -116 l 0 -116 m 116 463 l 579 463 l 579 810 l 116 810 l 116 463 m 116 0 l 579 0 l 579 347 l 116 347 l 116 0 z "},"C":{"ha":810,"x_min":0,"x_max":694,"o":"m 116 116 l 0 116 l 0 694 l 116 694 l 116 810 l 231 810 l 231 926 l 579 926 l 579 810 l 694 810 l 694 694 l 579 694 l 579 810 l 231 810 l 231 694 l 116 694 l 116 116 l 231 116 l 231 0 l 579 0 l 579 116 l 694 116 l 694 0 l 579 0 l 579 -116 l 231 -116 l 231 0 l 116 0 l 116 116 z "},"D":{"ha":926,"x_min":0,"x_max":810,"o":"m 0 -116 l 0 926 l 579 926 l 579 810 l 694 810 l 694 694 l 810 694 l 810 116 l 694 116 l 694 0 l 579 0 l 579 -116 l 0 -116 m 116 0 l 579 0 l 579 116 l 694 116 l 694 694 l 579 694 l 579 810 l 116 810 l 116 0 z "},"E":{"ha":810,"x_min":0,"x_max":694,"o":"m 116 810 l 116 463 l 579 463 l 579 347 l 116 347 l 116 0 l 694 0 l 694 -116 l 0 -116 l 0 926 l 694 926 l 694 810 l 116 810 z "},"F":{"ha":810,"x_min":0,"x_max":694,"o":"m 116 810 l 116 463 l 579 463 l 579 347 l 116 347 l 116 -116 l 0 -116 l 0 926 l 694 926 l 694 810 l 116 810 z "},"G":{"ha":926,"x_min":0,"x_max":810,"o":"m 231 694 l 116 694 l 116 116 l 231 116 l 231 0 l 579 0 l 579 116 l 694 116 l 694 347 l 463 347 l 463 463 l 810 463 l 810 -116 l 694 -116 l 694 0 l 579 0 l 579 -116 l 231 -116 l 231 0 l 116 0 l 116 116 l 0 116 l 0 694 l 116 694 l 116 810 l 231 810 l 231 926 l 694 926 l 694 810 l 810 810 l 810 694 l 694 694 l 694 810 l 231 810 l 231 694 z "},"H":{"ha":926,"x_min":0,"x_max":810,"o":"m 810 -116 l 694 -116 l 694 347 l 116 347 l 116 -116 l 0 -116 l 0 926 l 116 926 l 116 463 l 694 463 l 694 926 l 810 926 l 810 -116 z "},"I":{"ha":463,"x_min":116,"x_max":231,"o":"m 231 -116 l 116 -116 l 116 926 l 231 926 l 231 -116 z "},"J":{"ha":810,"x_min":0,"x_max":694,"o":"m 0 0 l 0 231 l 116 231 l 116 0 l 463 0 l 463 116 l 579 116 l 579 926 l 694 926 l 694 116 l 579 116 l 579 0 l 463 0 l 463 -116 l 116 -116 l 116 0 l 0 0 z "},"K":{"ha":810,"x_min":0,"x_max":694,"o":"m 0 926 l 116 926 l 116 463 l 231 463 l 231 579 l 347 579 l 347 694 l 463 694 l 463 810 l 579 810 l 579 926 l 694 926 l 694 810 l 579 810 l 579 694 l 463 694 l 463 579 l 347 579 l 347 463 l 231 463 l 231 347 l 347 347 l 347 231 l 463 231 l 463 116 l 579 116 l 579 0 l 694 0 l 694 -116 l 579 -116 l 579 0 l 463 0 l 463 116 l 347 116 l 347 231 l 231 231 l 231 347 l 116 347 l 116 -116 l 0 -116 l 0 926 z "},"L":{"ha":810,"x_min":0,"x_max":694,"o":"m 116 0 l 694 0 l 694 -116 l 0 -116 l 0 926 l 116 926 l 116 0 z "},"M":{"ha":1157,"x_min":0,"x_max":1042,"o":"m 0 926 l 116 926 l 116 810 l 231 810 l 231 694 l 347 694 l 347 579 l 463 579 l 463 463 l 579 463 l 579 579 l 694 579 l 694 694 l 810 694 l 810 810 l 926 810 l 926 926 l 1042 926 l 1042 -116 l 926 -116 l 926 694 l 810 694 l 810 579 l 694 579 l 694 463 l 579 463 l 579 347 l 463 347 l 463 463 l 347 463 l 347 579 l 231 579 l 231 694 l 116 694 l 116 -116 l 0 -116 l 0 926 z "},"N":{"ha":926,"x_min":0,"x_max":810,"o":"m 0 -116 l 0 926 l 116 926 l 116 810 l 231 810 l 231 694 l 347 694 l 347 579 l 463 579 l 463 463 l 579 463 l 579 347 l 694 347 l 694 926 l 810 926 l 810 -116 l 694 -116 l 694 231 l 579 231 l 579 347 l 463 347 l 463 463 l 347 463 l 347 579 l 231 579 l 231 694 l 116 694 l 116 -116 l 0 -116 z "},"O":{"ha":926,"x_min":0,"x_max":810,"o":"m 0 694 l 116 694 l 116 810 l 231 810 l 231 926 l 579 926 l 579 810 l 694 810 l 694 694 l 810 694 l 810 116 l 694 116 l 694 0 l 579 0 l 579 -116 l 231 -116 l 231 0 l 116 0 l 116 116 l 0 116 l 0 694 m 231 694 l 116 694 l 116 116 l 231 116 l 231 0 l 579 0 l 579 116 l 694 116 l 694 694 l 579 694 l 579 810 l 231 810 l 231 694 z "},"P":{"ha":810,"x_min":0,"x_max":694,"o":"m 0 -116 l 0 926 l 579 926 l 579 810 l 694 810 l 694 463 l 579 463 l 579 347 l 116 347 l 116 -116 l 0 -116 m 116 463 l 579 463 l 579 810 l 116 810 l 116 463 z "},"Q":{"ha":926,"x_min":0,"x_max":810,"o":"m 116 116 l 0 116 l 0 694 l 116 694 l 116 810 l 231 810 l 231 926 l 579 926 l 579 810 l 694 810 l 694 694 l 810 694 l 810 116 l 694 116 l 694 0 l 579 0 l 579 -231 l 810 -231 l 810 -347 l 579 -347 l 579 -231 l 463 -231 l 463 -116 l 231 -116 l 231 0 l 116 0 l 116 116 m 116 116 l 231 116 l 231 0 l 579 0 l 579 116 l 694 116 l 694 694 l 579 694 l 579 810 l 231 810 l 231 694 l 116 694 l 116 116 z "},"R":{"ha":810,"x_min":0,"x_max":694,"o":"m 0 -116 l 0 926 l 579 926 l 579 810 l 694 810 l 694 463 l 579 463 l 579 347 l 347 347 l 347 231 l 463 231 l 463 116 l 579 116 l 579 0 l 694 0 l 694 -116 l 579 -116 l 579 0 l 463 0 l 463 116 l 347 116 l 347 231 l 231 231 l 231 347 l 116 347 l 116 -116 l 0 -116 m 579 810 l 116 810 l 116 463 l 579 463 l 579 810 z "},"S":{"ha":810,"x_min":0,"x_max":694,"o":"m 0 810 l 116 810 l 116 926 l 579 926 l 579 810 l 694 810 l 694 694 l 579 694 l 579 810 l 116 810 l 116 463 l 579 463 l 579 347 l 694 347 l 694 0 l 579 0 l 579 -116 l 116 -116 l 116 0 l 0 0 l 0 116 l 116 116 l 116 0 l 579 0 l 579 347 l 116 347 l 116 463 l 0 463 l 0 810 z "},"T":{"ha":926,"x_min":0,"x_max":810,"o":"m 0 810 l 0 926 l 810 926 l 810 810 l 463 810 l 463 -116 l 347 -116 l 347 810 l 0 810 z "},"U":{"ha":926,"x_min":0,"x_max":810,"o":"m 0 926 l 116 926 l 116 116 l 231 116 l 231 0 l 579 0 l 579 116 l 694 116 l 694 926 l 810 926 l 810 116 l 694 116 l 694 0 l 579 0 l 579 -116 l 231 -116 l 231 0 l 116 0 l 116 116 l 0 116 l 0 926 z "},"V":{"ha":926,"x_min":0,"x_max":810,"o":"m 116 694 l 231 694 l 231 347 l 347 347 l 347 116 l 463 116 l 463 347 l 579 347 l 579 694 l 694 694 l 694 926 l 810 926 l 810 694 l 694 694 l 694 347 l 579 347 l 579 116 l 463 116 l 463 -116 l 347 -116 l 347 116 l 231 116 l 231 347 l 116 347 l 116 694 l 0 694 l 0 926 l 116 926 l 116 694 z "},"W":{"ha":1157,"x_min":0,"x_max":1042,"o":"m 116 579 l 231 579 l 231 231 l 347 231 l 347 463 l 463 463 l 463 926 l 579 926 l 579 463 l 694 463 l 694 231 l 810 231 l 810 579 l 926 579 l 926 926 l 1042 926 l 1042 579 l 926 579 l 926 231 l 810 231 l 810 -116 l 694 -116 l 694 231 l 579 231 l 579 463 l 463 463 l 463 231 l 347 231 l 347 -116 l 231 -116 l 231 231 l 116 231 l 116 579 l 0 579 l 0 926 l 116 926 l 116 579 z "},"X":{"ha":810,"x_min":0,"x_max":694,"o":"m 116 -116 l 0 -116 l 0 116 l 116 116 l 116 347 l 231 347 l 231 463 l 116 463 l 116 694 l 0 694 l 0 926 l 116 926 l 116 694 l 231 694 l 231 463 l 463 463 l 463 694 l 579 694 l 579 926 l 694 926 l 694 694 l 579 694 l 579 463 l 463 463 l 463 347 l 579 347 l 579 116 l 694 116 l 694 -116 l 579 -116 l 579 116 l 463 116 l 463 347 l 231 347 l 231 116 l 116 116 l 116 -116 z "},"Y":{"ha":926,"x_min":0,"x_max":810,"o":"m 116 694 l 231 694 l 231 463 l 347 463 l 347 347 l 463 347 l 463 463 l 579 463 l 579 694 l 694 694 l 694 926 l 810 926 l 810 694 l 694 694 l 694 463 l 579 463 l 579 347 l 463 347 l 463 -116 l 347 -116 l 347 347 l 231 347 l 231 463 l 116 463 l 116 694 l 0 694 l 0 926 l 116 926 l 116 694 z "},"Z":{"ha":810,"x_min":0,"x_max":694,"o":"m 231 231 l 116 231 l 116 0 l 694 0 l 694 -116 l 0 -116 l 0 231 l 116 231 l 116 347 l 231 347 l 231 463 l 347 463 l 347 579 l 463 579 l 463 694 l 579 694 l 579 810 l 0 810 l 0 926 l 694 926 l 694 694 l 579 694 l 579 579 l 463 579 l 463 463 l 347 463 l 347 347 l 231 347 l 231 231 z "},"[":{"ha":694,"x_min":116,"x_max":463,"o":"m 231 926 l 231 -116 l 463 -116 l 463 -231 l 116 -231 l 116 1042 l 463 1042 l 463 926 l 231 926 z "},"\\":{"ha":926,"x_min":116,"x_max":694,"o":"m 116 694 l 116 926 l 231 926 l 231 694 l 347 694 l 347 463 l 463 463 l 463 231 l 579 231 l 579 0 l 694 0 l 694 -231 l 579 -231 l 579 0 l 463 0 l 463 231 l 347 231 l 347 463 l 231 463 l 231 694 l 116 694 z "},"]":{"ha":694,"x_min":116,"x_max":463,"o":"m 116 926 l 116 1042 l 463 1042 l 463 -231 l 116 -231 l 116 -116 l 347 -116 l 347 926 l 116 926 z "},"^":{"ha":694,"x_min":0,"x_max":579,"o":"m 0 810 l 116 810 l 116 926 l 231 926 l 231 1042 l 347 1042 l 347 926 l 463 926 l 463 810 l 579 810 l 579 694 l 463 694 l 463 810 l 347 810 l 347 926 l 231 926 l 231 810 l 116 810 l 116 694 l 0 694 l 0 810 z "},"_":{"ha":810,"x_min":0,"x_max":694,"o":"m 0 -116 l 694 -116 l 694 -231 l 0 -231 l 0 -116 z "},"`":{"ha":463,"x_min":0,"x_max":231,"o":"m 0 926 l 116 926 l 116 810 l 231 810 l 231 694 l 116 694 l 116 810 l 0 810 l 0 926 z "},"a":{"ha":694,"x_min":0,"x_max":579,"o":"m 116 0 l 0 0 l 0 231 l 116 231 l 116 347 l 463 347 l 463 463 l 116 463 l 116 579 l 463 579 l 463 463 l 579 463 l 579 -116 l 116 -116 l 116 0 m 463 0 l 463 231 l 116 231 l 116 0 l 463 0 z "},"b":{"ha":694,"x_min":0,"x_max":579,"o":"m 0 -116 l 0 926 l 116 926 l 116 579 l 463 579 l 463 463 l 579 463 l 579 0 l 463 0 l 463 -116 l 0 -116 m 116 0 l 463 0 l 463 463 l 116 463 l 116 0 z "},"c":{"ha":694,"x_min":0,"x_max":579,"o":"m 579 0 l 463 0 l 463 -116 l 116 -116 l 116 0 l 0 0 l 0 463 l 116 463 l 116 579 l 463 579 l 463 463 l 579 463 l 579 347 l 463 347 l 463 463 l 116 463 l 116 0 l 463 0 l 463 116 l 579 116 l 579 0 z "},"d":{"ha":694,"x_min":0,"x_max":579,"o":"m 0 463 l 116 463 l 116 579 l 463 579 l 463 926 l 579 926 l 579 -116 l 116 -116 l 116 0 l 0 0 l 0 463 m 116 463 l 116 0 l 463 0 l 463 463 l 116 463 z "},"e":{"ha":694,"x_min":0,"x_max":579,"o":"m 116 0 l 0 0 l 0 463 l 116 463 l 116 579 l 463 579 l 463 463 l 579 463 l 579 231 l 116 231 l 116 0 l 463 0 l 463 116 l 579 116 l 579 0 l 463 0 l 463 -116 l 116 -116 l 116 0 m 463 463 l 116 463 l 116 347 l 463 347 l 463 463 z "},"f":{"ha":694,"x_min":0,"x_max":579,"o":"m 0 579 l 231 579 l 231 810 l 347 810 l 347 926 l 579 926 l 579 810 l 347 810 l 347 579 l 579 579 l 579 463 l 347 463 l 347 -116 l 231 -116 l 231 463 l 0 463 l 0 579 z "},"g":{"ha":694,"x_min":0,"x_max":579,"o":"m 0 -347 l 0 -231 l 116 -231 l 116 -347 l 463 -347 l 463 -116 l 116 -116 l 116 0 l 0 0 l 0 463 l 116 463 l 116 579 l 579 579 l 579 -347 l 463 -347 l 463 -463 l 116 -463 l 116 -347 l 0 -347 m 116 463 l 116 0 l 463 0 l 463 463 l 116 463 z "},"h":{"ha":694,"x_min":0,"x_max":579,"o":"m 0 -116 l 0 926 l 116 926 l 116 463 l 231 463 l 231 579 l 463 579 l 463 463 l 579 463 l 579 -116 l 463 -116 l 463 463 l 231 463 l 231 347 l 116 347 l 116 -116 l 0 -116 z "},"i":{"ha":463,"x_min":116,"x_max":231,"o":"m 116 810 l 116 926 l 231 926 l 231 810 l 116 810 m 231 -116 l 116 -116 l 116 579 l 231 579 l 231 -116 z "},"j":{"ha":463,"x_min":-231,"x_max":231,"o":"m 0 -463 l -231 -463 l -231 -347 l 0 -347 l 0 -231 l 116 -231 l 116 579 l 231 579 l 231 -231 l 116 -231 l 116 -347 l 0 -347 l 0 -463 m 116 926 l 231 926 l 231 810 l 116 810 l 116 926 z "},"k":{"ha":694,"x_min":0,"x_max":579,"o":"m 0 -116 l 0 926 l 116 926 l 116 347 l 231 347 l 231 463 l 347 463 l 347 579 l 463 579 l 463 463 l 347 463 l 347 347 l 231 347 l 231 231 l 347 231 l 347 116 l 463 116 l 463 0 l 579 0 l 579 -116 l 463 -116 l 463 0 l 347 0 l 347 116 l 231 116 l 231 231 l 116 231 l 116 -116 l 0 -116 z "},"l":{"ha":463,"x_min":116,"x_max":231,"o":"m 231 -116 l 116 -116 l 116 1042 l 231 1042 l 231 -116 z "},"m":{"ha":926,"x_min":0,"x_max":810,"o":"m 0 -116 l 0 579 l 694 579 l 694 463 l 810 463 l 810 -116 l 694 -116 l 694 463 l 463 463 l 463 -116 l 347 -116 l 347 463 l 116 463 l 116 -116 l 0 -116 z "},"n":{"ha":694,"x_min":0,"x_max":579,"o":"m 116 -116 l 0 -116 l 0 579 l 116 579 l 116 463 l 231 463 l 231 579 l 463 579 l 463 463 l 579 463 l 579 -116 l 463 -116 l 463 463 l 231 463 l 231 347 l 116 347 l 116 -116 z "},"o":{"ha":694,"x_min":0,"x_max":579,"o":"m 0 0 l 0 463 l 116 463 l 116 579 l 463 579 l 463 463 l 579 463 l 579 0 l 463 0 l 463 -116 l 116 -116 l 116 0 l 0 0 m 116 0 l 463 0 l 463 463 l 116 463 l 116 0 z "},"p":{"ha":694,"x_min":0,"x_max":579,"o":"m 0 -463 l 0 579 l 463 579 l 463 463 l 579 463 l 579 0 l 463 0 l 463 -116 l 116 -116 l 116 -463 l 0 -463 m 116 0 l 463 0 l 463 463 l 116 463 l 116 0 z "},"q":{"ha":694,"x_min":0,"x_max":579,"o":"m 116 0 l 0 0 l 0 463 l 116 463 l 116 579 l 579 579 l 579 -463 l 463 -463 l 463 -116 l 116 -116 l 116 0 m 463 0 l 463 463 l 116 463 l 116 0 l 463 0 z "},"r":{"ha":579,"x_min":0,"x_max":463,"o":"m 116 -116 l 0 -116 l 0 579 l 116 579 l 116 463 l 231 463 l 231 579 l 463 579 l 463 463 l 231 463 l 231 347 l 116 347 l 116 -116 z "},"s":{"ha":694,"x_min":0,"x_max":579,"o":"m 579 0 l 463 0 l 463 -116 l 116 -116 l 116 0 l 0 0 l 0 116 l 116 116 l 116 0 l 463 0 l 463 231 l 116 231 l 116 347 l 0 347 l 0 463 l 116 463 l 116 579 l 463 579 l 463 463 l 116 463 l 116 347 l 463 347 l 463 231 l 579 231 l 579 0 z "},"t":{"ha":579,"x_min":0,"x_max":463,"o":"m 0 579 l 116 579 l 116 926 l 231 926 l 231 579 l 463 579 l 463 463 l 231 463 l 231 0 l 463 0 l 463 -116 l 231 -116 l 231 0 l 116 0 l 116 463 l 0 463 l 0 579 z "},"u":{"ha":694,"x_min":0,"x_max":579,"o":"m 463 0 l 347 0 l 347 -116 l 116 -116 l 116 0 l 0 0 l 0 579 l 116 579 l 116 0 l 347 0 l 347 116 l 463 116 l 463 579 l 579 579 l 579 -116 l 463 -116 l 463 0 z "},"v":{"ha":694,"x_min":0,"x_max":579,"o":"m 0 579 l 116 579 l 116 347 l 231 347 l 231 116 l 347 116 l 347 347 l 463 347 l 463 579 l 579 579 l 579 347 l 463 347 l 463 116 l 347 116 l 347 -116 l 231 -116 l 231 116 l 116 116 l 116 347 l 0 347 l 0 579 z "},"w":{"ha":1157,"x_min":0,"x_max":1042,"o":"m 0 579 l 116 579 l 116 347 l 231 347 l 231 116 l 347 116 l 347 347 l 463 347 l 463 579 l 579 579 l 579 347 l 694 347 l 694 116 l 810 116 l 810 347 l 926 347 l 926 579 l 1042 579 l 1042 347 l 926 347 l 926 116 l 810 116 l 810 -116 l 694 -116 l 694 116 l 579 116 l 579 347 l 463 347 l 463 116 l 347 116 l 347 -116 l 231 -116 l 231 116 l 116 116 l 116 347 l 0 347 l 0 579 z "},"x":{"ha":694,"x_min":0,"x_max":579,"o":"m 0 0 l 116 0 l 116 116 l 231 116 l 231 347 l 116 347 l 116 463 l 0 463 l 0 579 l 116 579 l 116 463 l 231 463 l 231 347 l 347 347 l 347 463 l 463 463 l 463 579 l 579 579 l 579 463 l 463 463 l 463 347 l 347 347 l 347 116 l 463 116 l 463 0 l 579 0 l 579 -116 l 463 -116 l 463 0 l 347 0 l 347 116 l 231 116 l 231 0 l 116 0 l 116 -116 l 0 -116 l 0 0 z "},"y":{"ha":694,"x_min":0,"x_max":579,"o":"m 0 -347 l 0 -231 l 116 -231 l 116 -347 l 463 -347 l 463 -116 l 116 -116 l 116 0 l 0 0 l 0 579 l 116 579 l 116 0 l 463 0 l 463 579 l 579 579 l 579 -347 l 463 -347 l 463 -463 l 116 -463 l 116 -347 l 0 -347 z "},"z":{"ha":694,"x_min":0,"x_max":579,"o":"m 231 116 l 116 116 l 116 0 l 579 0 l 579 -116 l 0 -116 l 0 116 l 116 116 l 116 231 l 231 231 l 231 347 l 347 347 l 347 463 l 0 463 l 0 579 l 579 579 l 579 463 l 463 463 l 463 347 l 347 347 l 347 231 l 231 231 l 231 116 z "},"{":{"ha":926,"x_min":116,"x_max":694,"o":"m 116 463 l 347 463 l 347 926 l 463 926 l 463 1042 l 694 1042 l 694 926 l 463 926 l 463 463 l 347 463 l 347 347 l 463 347 l 463 -116 l 694 -116 l 694 -231 l 463 -231 l 463 -116 l 347 -116 l 347 347 l 116 347 l 116 463 z "},"|":{"ha":694,"x_min":231,"x_max":347,"o":"m 347 -231 l 231 -231 l 231 1042 l 347 1042 l 347 -231 z "},"}":{"ha":926,"x_min":116,"x_max":694,"o":"m 463 -116 l 347 -116 l 347 -231 l 116 -231 l 116 -116 l 347 -116 l 347 347 l 463 347 l 463 463 l 347 463 l 347 926 l 116 926 l 116 1042 l 347 1042 l 347 926 l 463 926 l 463 463 l 694 463 l 694 347 l 463 347 l 463 -116 z "},"~":{"ha":810,"x_min":0,"x_max":694,"o":"m 0 347 l 116 347 l 116 463 l 347 463 l 347 347 l 579 347 l 579 463 l 694 463 l 694 347 l 579 347 l 579 231 l 347 231 l 347 347 l 116 347 l 116 231 l 0 231 l 0 347 z "}," ":{"ha":694,"x_min":0,"x_max":0,"o":""},"¡":{"ha":463,"x_min":116,"x_max":231,"o":"m 116 810 l 116 926 l 231 926 l 231 810 l 116 810 m 231 579 l 231 463 l 231 347 l 231 231 l 231 116 l 231 0 l 231 -116 l 116 -116 l 116 0 l 116 116 l 116 231 l 116 347 l 116 463 l 116 579 l 116 694 l 231 694 l 231 579 z "},"¢":{"ha":810,"x_min":116,"x_max":694,"o":"m 463 810 l 463 694 l 579 694 l 579 579 l 694 579 l 694 463 l 579 463 l 579 579 l 463 579 l 463 463 l 463 347 l 463 231 l 463 116 l 694 116 l 694 0 l 463 0 l 463 -116 l 347 -116 l 347 0 l 231 0 l 231 116 l 347 116 l 347 231 l 347 347 l 347 463 l 347 579 l 231 579 l 231 694 l 347 694 l 347 810 l 347 926 l 463 926 l 463 810 m 231 579 l 231 463 l 231 347 l 231 231 l 231 116 l 116 116 l 116 231 l 116 347 l 116 463 l 116 579 l 231 579 z "},"£":{"ha":926,"x_min":116,"x_max":810,"o":"m 116 347 l 116 463 l 231 463 l 231 579 l 231 694 l 231 810 l 347 810 l 347 926 l 694 926 l 694 810 l 810 810 l 810 694 l 694 694 l 694 810 l 347 810 l 347 694 l 347 579 l 347 463 l 694 463 l 694 347 l 347 347 l 347 231 l 347 116 l 463 116 l 463 0 l 810 0 l 810 -116 l 463 -116 l 463 0 l 231 0 l 231 116 l 231 231 l 231 347 l 116 347 m 231 0 l 231 -116 l 116 -116 l 116 0 l 231 0 z "},"¤":{"ha":926,"x_min":116,"x_max":810,"o":"m 116 579 l 116 694 l 231 694 l 231 579 l 694 579 l 694 694 l 810 694 l 810 579 l 694 579 l 694 463 l 694 347 l 694 231 l 694 116 l 810 116 l 810 0 l 694 0 l 694 116 l 231 116 l 231 231 l 231 347 l 231 463 l 231 579 l 116 579 m 116 0 l 116 116 l 231 116 l 231 0 l 116 0 m 579 347 l 579 463 l 347 463 l 347 347 l 347 231 l 579 231 l 579 347 z "},"¥":{"ha":926,"x_min":0,"x_max":810,"o":"m 347 -116 l 347 0 l 231 0 l 116 0 l 116 116 l 231 116 l 347 116 l 347 231 l 231 231 l 116 231 l 116 347 l 231 347 l 231 463 l 347 463 l 347 347 l 463 347 l 463 463 l 579 463 l 579 347 l 694 347 l 694 231 l 579 231 l 463 231 l 463 116 l 579 116 l 694 116 l 694 0 l 579 0 l 463 0 l 463 -116 l 347 -116 m 579 463 l 579 579 l 579 694 l 694 694 l 694 579 l 694 463 l 579 463 m 231 463 l 116 463 l 116 579 l 116 694 l 231 694 l 231 579 l 231 463 m 694 694 l 694 810 l 694 926 l 810 926 l 810 810 l 810 694 l 694 694 m 116 694 l 0 694 l 0 810 l 0 926 l 116 926 l 116 810 l 116 694 z "},"¦":{"ha":347,"x_min":116,"x_max":231,"o":"m 231 926 l 231 810 l 231 694 l 231 579 l 231 463 l 116 463 l 116 579 l 116 694 l 116 810 l 116 926 l 116 1042 l 231 1042 l 231 926 m 231 231 l 231 116 l 231 0 l 231 -116 l 231 -231 l 116 -231 l 116 -116 l 116 0 l 116 116 l 116 231 l 116 347 l 231 347 l 231 231 z "},"§":{"ha":1505,"x_min":463,"x_max":1042,"o":"m 1042 926 l 1042 810 l 926 810 l 926 926 l 926 1042 l 1042 1042 l 1042 926 m 1042 463 l 1042 347 l 926 347 l 926 463 l 926 579 l 1042 579 l 1042 463 m 1042 0 l 1042 -116 l 926 -116 l 926 0 l 926 116 l 1042 116 l 1042 0 m 926 116 l 810 116 l 810 231 l 579 231 l 579 347 l 926 347 l 926 231 l 926 116 m 926 1042 l 579 1042 l 579 1157 l 926 1157 l 926 1042 m 926 579 l 579 579 l 579 694 l 579 810 l 694 810 l 694 694 l 926 694 l 926 579 m 926 -116 l 926 -231 l 579 -231 l 579 -116 l 926 -116 m 579 1042 l 579 926 l 579 810 l 463 810 l 463 926 l 463 1042 l 579 1042 m 579 579 l 579 463 l 579 347 l 463 347 l 463 463 l 463 579 l 579 579 m 579 -116 l 463 -116 l 463 0 l 463 116 l 579 116 l 579 0 l 579 -116 z "},"¨":{"ha":1505,"x_min":347,"x_max":1157,"o":"m 1157 1042 l 1157 926 l 926 926 l 926 1042 l 926 1157 l 1157 1157 l 1157 1042 m 579 1042 l 579 926 l 347 926 l 347 1042 l 347 1157 l 579 1157 l 579 1042 z "},"©":{"ha":1273,"x_min":116,"x_max":1157,"o":"m 1157 579 l 1157 463 l 1157 347 l 1157 231 l 1157 116 l 1042 116 l 1042 231 l 1042 347 l 1042 463 l 1042 579 l 1042 694 l 1157 694 l 1157 579 m 1042 694 l 926 694 l 926 810 l 1042 810 l 1042 694 m 1042 116 l 1042 0 l 926 0 l 926 116 l 1042 116 m 926 810 l 347 810 l 347 926 l 926 926 l 926 810 m 463 579 l 463 694 l 810 694 l 810 579 l 463 579 m 463 579 l 463 463 l 463 347 l 463 231 l 810 231 l 810 116 l 463 116 l 463 231 l 347 231 l 347 347 l 347 463 l 347 579 l 463 579 m 926 0 l 926 -116 l 347 -116 l 347 0 l 926 0 m 347 810 l 347 694 l 231 694 l 231 810 l 347 810 m 347 0 l 231 0 l 231 116 l 347 116 l 347 0 m 231 694 l 231 579 l 231 463 l 231 347 l 231 231 l 231 116 l 116 116 l 116 231 l 116 347 l 116 463 l 116 579 l 116 694 l 231 694 z "},"ª":{"ha":810,"x_min":116,"x_max":694,"o":"m 231 810 l 231 926 l 579 926 l 579 810 l 694 810 l 694 694 l 694 579 l 694 463 l 694 347 l 694 231 l 231 231 l 231 347 l 579 347 l 579 463 l 579 579 l 231 579 l 231 694 l 579 694 l 579 810 l 231 810 m 116 0 l 694 0 l 694 -116 l 116 -116 l 116 0 m 231 579 l 231 463 l 231 347 l 116 347 l 116 463 l 116 579 l 231 579 z "},"«":{"ha":1157,"x_min":116,"x_max":1042,"o":"m 463 347 l 463 463 l 579 463 l 579 579 l 694 579 l 694 694 l 810 694 l 810 810 l 926 810 l 926 926 l 1042 926 l 1042 810 l 926 810 l 926 694 l 810 694 l 810 579 l 694 579 l 694 463 l 579 463 l 579 347 l 694 347 l 694 231 l 810 231 l 810 116 l 926 116 l 926 0 l 1042 0 l 1042 -116 l 926 -116 l 926 0 l 810 0 l 810 116 l 694 116 l 694 231 l 579 231 l 579 347 l 463 347 m 116 347 l 116 463 l 231 463 l 231 579 l 347 579 l 347 694 l 463 694 l 463 810 l 579 810 l 579 926 l 694 926 l 694 810 l 579 810 l 579 694 l 463 694 l 463 579 l 347 579 l 347 463 l 231 463 l 231 347 l 347 347 l 347 231 l 463 231 l 463 116 l 579 116 l 579 0 l 694 0 l 694 -116 l 579 -116 l 579 0 l 463 0 l 463 116 l 347 116 l 347 231 l 231 231 l 231 347 l 116 347 z "},"¬":{"ha":1042,"x_min":116,"x_max":926,"o":"m 116 347 l 116 463 l 926 463 l 926 347 l 926 231 l 926 116 l 810 116 l 810 231 l 810 347 l 116 347 z "},"­":{"ha":926,"x_min":116,"x_max":810,"o":"m 116 347 l 116 463 l 810 463 l 810 347 l 116 347 z "},"®":{"ha":1273,"x_min":116,"x_max":1157,"o":"m 1157 579 l 1157 463 l 1157 347 l 1157 231 l 1157 116 l 1042 116 l 1042 231 l 1042 347 l 1042 463 l 1042 579 l 1042 694 l 1157 694 l 1157 579 m 1042 694 l 926 694 l 926 810 l 1042 810 l 1042 694 m 1042 116 l 1042 0 l 926 0 l 926 116 l 1042 116 m 926 116 l 810 116 l 810 231 l 810 347 l 926 347 l 926 231 l 926 116 m 926 810 l 347 810 l 347 926 l 926 926 l 926 810 m 810 579 l 463 579 l 463 463 l 810 463 l 810 579 m 926 579 l 926 463 l 810 463 l 810 347 l 463 347 l 463 231 l 463 116 l 347 116 l 347 231 l 347 347 l 347 463 l 347 579 l 347 694 l 926 694 l 926 579 m 926 0 l 926 -116 l 347 -116 l 347 0 l 926 0 m 347 694 l 231 694 l 231 810 l 347 810 l 347 694 m 347 0 l 231 0 l 231 116 l 347 116 l 347 0 m 231 694 l 231 579 l 231 463 l 231 347 l 231 231 l 231 116 l 116 116 l 116 231 l 116 347 l 116 463 l 116 579 l 116 694 l 231 694 z "},"¯":{"ha":926,"x_min":116,"x_max":810,"o":"m 116 810 l 116 926 l 810 926 l 810 810 l 116 810 z "},"°":{"ha":579,"x_min":0,"x_max":463,"o":"m 231 694 l 347 694 l 347 579 l 231 579 l 116 579 l 116 694 l 231 694 m 347 694 l 347 810 l 347 926 l 463 926 l 463 810 l 463 694 l 347 694 m 116 694 l 0 694 l 0 810 l 0 926 l 116 926 l 116 810 l 116 694 m 347 926 l 231 926 l 116 926 l 116 1042 l 231 1042 l 347 1042 l 347 926 z "},"±":{"ha":926,"x_min":0,"x_max":810,"o":"m 0 463 l 0 579 l 347 579 l 347 694 l 347 810 l 347 926 l 463 926 l 463 810 l 463 694 l 463 579 l 810 579 l 810 463 l 463 463 l 463 347 l 463 231 l 463 116 l 347 116 l 347 231 l 347 347 l 347 463 l 0 463 m 0 0 l 810 0 l 810 -116 l 0 -116 l 0 0 z "},"²":{"ha":579,"x_min":0,"x_max":463,"o":"m 0 810 l 0 926 l 116 926 l 116 810 l 0 810 m 347 463 l 463 463 l 463 347 l 347 347 l 231 347 l 116 347 l 0 347 l 0 463 l 116 463 l 116 579 l 231 579 l 231 463 l 347 463 m 231 579 l 231 694 l 347 694 l 347 579 l 231 579 m 347 694 l 347 810 l 347 926 l 463 926 l 463 810 l 463 694 l 347 694 m 347 926 l 231 926 l 116 926 l 116 1042 l 231 1042 l 347 1042 l 347 926 z "},"³":{"ha":579,"x_min":0,"x_max":463,"o":"m 231 463 l 347 463 l 347 347 l 231 347 l 116 347 l 116 463 l 231 463 m 347 463 l 347 579 l 347 694 l 463 694 l 463 579 l 463 463 l 347 463 m 116 463 l 0 463 l 0 579 l 116 579 l 116 463 m 347 694 l 231 694 l 116 694 l 116 810 l 231 810 l 231 926 l 116 926 l 0 926 l 0 1042 l 116 1042 l 231 1042 l 347 1042 l 463 1042 l 463 926 l 347 926 l 347 810 l 347 694 z "},"´":{"ha":1505,"x_min":579,"x_max":810,"o":"m 579 926 l 579 1042 l 694 1042 l 694 1157 l 810 1157 l 810 1042 l 694 1042 l 694 926 l 579 926 z "},"µ":{"ha":810,"x_min":116,"x_max":694,"o":"m 694 463 l 694 347 l 694 231 l 694 116 l 694 0 l 694 -116 l 579 -116 l 579 0 l 463 0 l 463 116 l 579 116 l 579 231 l 579 347 l 579 463 l 579 579 l 694 579 l 694 463 m 231 463 l 231 347 l 231 231 l 231 116 l 231 0 l 463 0 l 463 -116 l 231 -116 l 231 -231 l 231 -347 l 231 -463 l 116 -463 l 116 -347 l 116 -231 l 116 -116 l 116 0 l 116 116 l 116 231 l 116 347 l 116 463 l 116 579 l 231 579 l 231 463 z "},"¶":{"ha":1505,"x_min":347,"x_max":1042,"o":"m 1042 810 l 1042 694 l 1042 579 l 1042 463 l 1042 347 l 1042 231 l 1042 116 l 1042 0 l 1042 -116 l 926 -116 l 926 0 l 926 116 l 926 231 l 926 347 l 926 463 l 926 579 l 926 694 l 926 810 l 926 926 l 810 926 l 810 810 l 810 694 l 810 579 l 810 463 l 810 347 l 810 231 l 810 116 l 810 0 l 810 -116 l 694 -116 l 694 0 l 694 116 l 694 231 l 694 347 l 579 347 l 579 463 l 463 463 l 463 579 l 347 579 l 347 694 l 347 810 l 463 810 l 463 926 l 579 926 l 579 1042 l 1042 1042 l 1042 926 l 1042 810 z "},"·":{"ha":810,"x_min":347,"x_max":463,"o":"m 347 347 l 347 463 l 463 463 l 463 347 l 347 347 z "},"¸":{"ha":694,"x_min":231,"x_max":579,"o":"m 463 0 l 579 0 l 579 -116 l 463 -116 l 463 0 m 463 -116 l 463 -231 l 347 -231 l 347 -116 l 463 -116 m 347 -231 l 347 -347 l 231 -347 l 231 -231 l 347 -231 z "},"¹":{"ha":463,"x_min":0,"x_max":347,"o":"m 231 347 l 231 463 l 231 579 l 231 694 l 231 810 l 116 810 l 116 694 l 0 694 l 0 810 l 116 810 l 116 926 l 231 926 l 231 1042 l 347 1042 l 347 926 l 347 810 l 347 694 l 347 579 l 347 463 l 347 347 l 231 347 z "},"º":{"ha":810,"x_min":116,"x_max":694,"o":"m 116 116 l 116 231 l 694 231 l 694 116 l 116 116 m 694 810 l 694 694 l 694 579 l 579 579 l 579 694 l 579 810 l 579 926 l 694 926 l 694 810 m 579 926 l 231 926 l 231 1042 l 579 1042 l 579 926 m 579 579 l 579 463 l 231 463 l 231 579 l 579 579 m 231 926 l 231 810 l 231 694 l 231 579 l 116 579 l 116 694 l 116 810 l 116 926 l 231 926 z "},"»":{"ha":1157,"x_min":116,"x_max":1042,"o":"m 463 810 l 463 926 l 579 926 l 579 810 l 694 810 l 694 694 l 810 694 l 810 579 l 926 579 l 926 463 l 1042 463 l 1042 347 l 926 347 l 926 463 l 810 463 l 810 579 l 694 579 l 694 694 l 579 694 l 579 810 l 463 810 m 116 810 l 116 926 l 231 926 l 231 810 l 347 810 l 347 694 l 463 694 l 463 579 l 579 579 l 579 463 l 694 463 l 694 347 l 579 347 l 579 463 l 463 463 l 463 579 l 347 579 l 347 694 l 231 694 l 231 810 l 116 810 m 926 347 l 926 231 l 810 231 l 810 347 l 926 347 m 810 231 l 810 116 l 694 116 l 694 231 l 810 231 m 694 116 l 694 0 l 579 0 l 579 116 l 694 116 m 579 347 l 579 231 l 463 231 l 463 347 l 579 347 m 579 0 l 579 -116 l 463 -116 l 463 0 l 579 0 m 463 231 l 463 116 l 347 116 l 347 231 l 463 231 m 347 116 l 347 0 l 231 0 l 231 116 l 347 116 m 231 0 l 231 -116 l 116 -116 l 116 0 l 231 0 z "},"¼":{"ha":1042,"x_min":116,"x_max":926,"o":"m 116 694 l 116 810 l 231 810 l 231 926 l 347 926 l 347 810 l 347 694 l 347 579 l 347 463 l 231 463 l 231 579 l 231 694 l 116 694 m 116 0 l 116 116 l 231 116 l 231 231 l 347 231 l 347 347 l 463 347 l 463 463 l 579 463 l 579 579 l 694 579 l 694 694 l 810 694 l 810 810 l 926 810 l 926 694 l 810 694 l 810 579 l 694 579 l 694 463 l 579 463 l 579 347 l 810 347 l 810 231 l 810 116 l 926 116 l 926 0 l 810 0 l 810 -116 l 694 -116 l 694 0 l 463 0 l 463 116 l 463 231 l 579 231 l 579 347 l 463 347 l 463 231 l 347 231 l 347 116 l 231 116 l 231 0 l 116 0 m 694 231 l 579 231 l 579 116 l 694 116 l 694 231 z "},"½":{"ha":1042,"x_min":116,"x_max":926,"o":"m 116 694 l 116 810 l 231 810 l 231 926 l 347 926 l 347 810 l 347 694 l 347 579 l 347 463 l 231 463 l 231 579 l 231 694 l 116 694 m 116 0 l 116 116 l 231 116 l 231 231 l 347 231 l 347 347 l 463 347 l 463 463 l 579 463 l 579 579 l 694 579 l 694 694 l 810 694 l 810 810 l 926 810 l 926 694 l 810 694 l 810 579 l 694 579 l 694 463 l 579 463 l 579 347 l 810 347 l 810 231 l 926 231 l 926 116 l 810 116 l 810 231 l 579 231 l 579 347 l 463 347 l 463 231 l 347 231 l 347 116 l 231 116 l 231 0 l 116 0 m 810 116 l 810 0 l 926 0 l 926 -116 l 579 -116 l 579 0 l 694 0 l 694 116 l 810 116 z "},"¾":{"ha":1042,"x_min":116,"x_max":926,"o":"m 116 810 l 116 926 l 463 926 l 463 810 l 347 810 l 347 694 l 463 694 l 463 579 l 347 579 l 347 694 l 231 694 l 231 810 l 116 810 m 116 463 l 116 579 l 347 579 l 347 463 l 116 463 m 116 0 l 116 116 l 231 116 l 231 231 l 347 231 l 347 347 l 463 347 l 463 463 l 579 463 l 579 579 l 694 579 l 694 694 l 810 694 l 810 810 l 926 810 l 926 694 l 810 694 l 810 579 l 694 579 l 694 463 l 579 463 l 579 347 l 810 347 l 810 231 l 810 116 l 926 116 l 926 0 l 810 0 l 810 -116 l 694 -116 l 694 0 l 463 0 l 463 116 l 463 231 l 579 231 l 579 347 l 463 347 l 463 231 l 347 231 l 347 116 l 231 116 l 231 0 l 116 0 m 694 231 l 579 231 l 579 116 l 694 116 l 694 231 z "},"¿":{"ha":694,"x_min":0,"x_max":579,"o":"m 231 810 l 231 926 l 347 926 l 347 810 l 231 810 m 579 116 l 579 0 l 463 0 l 463 116 l 463 231 l 579 231 l 579 116 m 347 579 l 347 463 l 231 463 l 231 579 l 231 694 l 347 694 l 347 579 m 231 463 l 231 347 l 116 347 l 116 463 l 231 463 m 463 0 l 463 -116 l 116 -116 l 116 0 l 463 0 m 116 347 l 116 231 l 116 116 l 116 0 l 0 0 l 0 116 l 0 231 l 0 347 l 116 347 z "},"À":{"ha":926,"x_min":0,"x_max":810,"o":"m 231 1042 l 231 1157 l 347 1157 l 347 1042 l 463 1042 l 463 926 l 347 926 l 347 1042 l 231 1042 m 810 0 l 810 -116 l 694 -116 l 694 0 l 694 116 l 810 116 l 810 0 m 579 347 l 694 347 l 694 231 l 694 116 l 116 116 l 116 231 l 116 347 l 231 347 l 231 463 l 231 579 l 347 579 l 347 694 l 347 810 l 463 810 l 463 694 l 463 579 l 579 579 l 579 463 l 579 347 m 579 347 l 463 347 l 463 463 l 463 579 l 347 579 l 347 463 l 347 347 l 231 347 l 231 231 l 579 231 l 579 347 m 116 0 l 116 -116 l 0 -116 l 0 0 l 0 116 l 116 116 l 116 0 z "},"Á":{"ha":926,"x_min":0,"x_max":810,"o":"m 347 926 l 347 1042 l 463 1042 l 463 1157 l 579 1157 l 579 1042 l 463 1042 l 463 926 l 347 926 m 810 0 l 810 -116 l 694 -116 l 694 0 l 694 116 l 810 116 l 810 0 m 579 347 l 694 347 l 694 231 l 694 116 l 116 116 l 116 231 l 116 347 l 231 347 l 231 463 l 231 579 l 347 579 l 347 694 l 347 810 l 463 810 l 463 694 l 463 579 l 579 579 l 579 463 l 579 347 m 579 347 l 463 347 l 463 463 l 463 579 l 347 579 l 347 463 l 347 347 l 231 347 l 231 231 l 579 231 l 579 347 m 116 116 l 116 0 l 116 -116 l 0 -116 l 0 0 l 0 116 l 116 116 z "},"Â":{"ha":926,"x_min":0,"x_max":810,"o":"m 231 926 l 231 1042 l 347 1042 l 347 1157 l 463 1157 l 463 1042 l 579 1042 l 579 926 l 463 926 l 463 1042 l 347 1042 l 347 926 l 231 926 m 810 0 l 810 -116 l 694 -116 l 694 0 l 694 116 l 810 116 l 810 0 m 579 347 l 694 347 l 694 231 l 694 116 l 116 116 l 116 231 l 116 347 l 231 347 l 231 463 l 231 579 l 347 579 l 347 694 l 347 810 l 463 810 l 463 694 l 463 579 l 579 579 l 579 463 l 579 347 m 579 347 l 463 347 l 463 463 l 463 579 l 347 579 l 347 463 l 347 347 l 231 347 l 231 231 l 579 231 l 579 347 m 116 0 l 116 -116 l 0 -116 l 0 0 l 0 116 l 116 116 l 116 0 z "},"Ã":{"ha":926,"x_min":0,"x_max":810,"o":"m 116 926 l 116 1042 l 231 1042 l 231 1157 l 463 1157 l 463 1042 l 694 1042 l 694 1157 l 810 1157 l 810 1042 l 694 1042 l 694 926 l 463 926 l 463 1042 l 231 1042 l 231 926 l 116 926 m 810 0 l 810 -116 l 694 -116 l 694 0 l 694 116 l 810 116 l 810 0 m 579 347 l 694 347 l 694 231 l 694 116 l 116 116 l 116 231 l 116 347 l 231 347 l 231 463 l 231 579 l 347 579 l 347 694 l 347 810 l 463 810 l 463 694 l 463 579 l 579 579 l 579 463 l 579 347 m 579 347 l 463 347 l 463 463 l 463 579 l 347 579 l 347 463 l 347 347 l 231 347 l 231 231 l 579 231 l 579 347 m 116 0 l 116 -116 l 0 -116 l 0 0 l 0 116 l 116 116 l 116 0 z "},"Ä":{"ha":926,"x_min":0,"x_max":810,"o":"m 810 0 l 810 -116 l 694 -116 l 694 0 l 694 116 l 810 116 l 810 0 m 694 1042 l 694 926 l 579 926 l 579 1042 l 579 1157 l 694 1157 l 694 1042 m 579 347 l 694 347 l 694 231 l 694 116 l 116 116 l 116 231 l 116 347 l 231 347 l 231 463 l 231 579 l 347 579 l 347 694 l 347 810 l 463 810 l 463 694 l 463 579 l 579 579 l 579 463 l 579 347 m 579 347 l 463 347 l 463 463 l 463 579 l 347 579 l 347 463 l 347 347 l 231 347 l 231 231 l 579 231 l 579 347 m 347 1042 l 347 926 l 231 926 l 231 1042 l 231 1157 l 347 1157 l 347 1042 m 116 0 l 116 -116 l 0 -116 l 0 0 l 0 116 l 116 116 l 116 0 z "},"Å":{"ha":926,"x_min":0,"x_max":810,"o":"m 810 0 l 810 -116 l 694 -116 l 694 0 l 694 116 l 810 116 l 810 0 m 694 926 l 694 810 l 579 810 l 579 926 l 579 1042 l 694 1042 l 694 926 m 579 347 l 694 347 l 694 231 l 694 116 l 116 116 l 116 231 l 116 347 l 231 347 l 231 463 l 231 579 l 347 579 l 347 694 l 347 810 l 579 810 l 579 694 l 463 694 l 463 579 l 579 579 l 579 463 l 579 347 m 579 347 l 463 347 l 463 463 l 463 579 l 347 579 l 347 463 l 347 347 l 231 347 l 231 231 l 579 231 l 579 347 m 579 1042 l 347 1042 l 347 1157 l 579 1157 l 579 1042 m 347 1042 l 347 926 l 347 810 l 231 810 l 231 926 l 231 1042 l 347 1042 m 116 0 l 116 -116 l 0 -116 l 0 0 l 0 116 l 116 116 l 116 0 z "},"Æ":{"ha":1042,"x_min":0,"x_max":926,"o":"m 579 694 l 579 579 l 579 463 l 926 463 l 926 347 l 579 347 l 579 231 l 579 116 l 579 0 l 926 0 l 926 -116 l 463 -116 l 463 0 l 463 116 l 463 231 l 116 231 l 116 347 l 116 463 l 116 579 l 231 579 l 231 694 l 231 810 l 231 926 l 926 926 l 926 810 l 579 810 l 579 694 m 463 694 l 463 810 l 347 810 l 347 694 l 347 579 l 231 579 l 231 463 l 231 347 l 463 347 l 463 463 l 463 579 l 463 694 m 116 231 l 116 116 l 116 0 l 116 -116 l 0 -116 l 0 0 l 0 116 l 0 231 l 116 231 z "},"Ç":{"ha":810,"x_min":0,"x_max":694,"o":"m 579 810 l 694 810 l 694 694 l 579 694 l 579 810 m 579 810 l 231 810 l 231 926 l 579 926 l 579 810 m 347 -231 l 347 -116 l 231 -116 l 231 0 l 579 0 l 579 116 l 694 116 l 694 0 l 579 0 l 579 -116 l 463 -116 l 463 -231 l 347 -231 m 347 -231 l 347 -347 l 231 -347 l 231 -231 l 347 -231 m 231 810 l 231 694 l 116 694 l 116 810 l 231 810 m 231 0 l 116 0 l 116 116 l 231 116 l 231 0 m 116 694 l 116 579 l 116 463 l 116 347 l 116 231 l 116 116 l 0 116 l 0 231 l 0 347 l 0 463 l 0 579 l 0 694 l 116 694 z "},"È":{"ha":810,"x_min":0,"x_max":694,"o":"m 231 1042 l 231 1157 l 347 1157 l 347 1042 l 463 1042 l 463 926 l 347 926 l 347 1042 l 231 1042 m 116 694 l 116 579 l 116 463 l 579 463 l 579 347 l 116 347 l 116 231 l 116 116 l 116 0 l 694 0 l 694 -116 l 0 -116 l 0 0 l 0 116 l 0 231 l 0 347 l 0 463 l 0 579 l 0 694 l 0 810 l 694 810 l 694 694 l 116 694 z "},"É":{"ha":810,"x_min":0,"x_max":694,"o":"m 231 926 l 231 1042 l 347 1042 l 347 1157 l 463 1157 l 463 1042 l 347 1042 l 347 926 l 231 926 m 116 694 l 116 579 l 116 463 l 579 463 l 579 347 l 116 347 l 116 231 l 116 116 l 116 0 l 694 0 l 694 -116 l 0 -116 l 0 0 l 0 116 l 0 231 l 0 347 l 0 463 l 0 579 l 0 694 l 0 810 l 694 810 l 694 694 l 116 694 z "},"Ê":{"ha":810,"x_min":0,"x_max":694,"o":"m 116 926 l 116 1042 l 231 1042 l 231 1157 l 463 1157 l 463 1042 l 579 1042 l 579 926 l 463 926 l 463 1042 l 231 1042 l 231 926 l 116 926 m 116 694 l 116 579 l 116 463 l 579 463 l 579 347 l 116 347 l 116 231 l 116 116 l 116 0 l 694 0 l 694 -116 l 0 -116 l 0 0 l 0 116 l 0 231 l 0 347 l 0 463 l 0 579 l 0 694 l 0 810 l 694 810 l 694 694 l 116 694 z "},"Ë":{"ha":810,"x_min":0,"x_max":694,"o":"m 579 1042 l 579 926 l 463 926 l 463 1042 l 463 1157 l 579 1157 l 579 1042 m 231 1042 l 231 926 l 116 926 l 116 1042 l 116 1157 l 231 1157 l 231 1042 m 116 694 l 116 579 l 116 463 l 579 463 l 579 347 l 116 347 l 116 231 l 116 116 l 116 0 l 694 0 l 694 -116 l 0 -116 l 0 0 l 0 116 l 0 231 l 0 347 l 0 463 l 0 579 l 0 694 l 0 810 l 694 810 l 694 694 l 116 694 z "},"Ì":{"ha":463,"x_min":0,"x_max":231,"o":"m 0 1042 l 0 1157 l 116 1157 l 116 1042 l 231 1042 l 231 926 l 116 926 l 116 1042 l 0 1042 m 231 694 l 231 579 l 231 463 l 231 347 l 231 231 l 231 116 l 231 0 l 231 -116 l 116 -116 l 116 0 l 116 116 l 116 231 l 116 347 l 116 463 l 116 579 l 116 694 l 116 810 l 231 810 l 231 694 z "},"Í":{"ha":463,"x_min":116,"x_max":347,"o":"m 116 926 l 116 1042 l 231 1042 l 231 1157 l 347 1157 l 347 1042 l 231 1042 l 231 926 l 116 926 m 231 694 l 231 579 l 231 463 l 231 347 l 231 231 l 231 116 l 231 0 l 231 -116 l 116 -116 l 116 0 l 116 116 l 116 231 l 116 347 l 116 463 l 116 579 l 116 694 l 116 810 l 231 810 l 231 694 z "},"Î":{"ha":463,"x_min":0,"x_max":347,"o":"m 0 926 l 0 1042 l 116 1042 l 116 1157 l 231 1157 l 231 1042 l 347 1042 l 347 926 l 231 926 l 231 1042 l 116 1042 l 116 926 l 0 926 m 231 694 l 231 579 l 231 463 l 231 347 l 231 231 l 231 116 l 231 0 l 231 -116 l 116 -116 l 116 0 l 116 116 l 116 231 l 116 347 l 116 463 l 116 579 l 116 694 l 116 810 l 231 810 l 231 694 z "},"Ï":{"ha":579,"x_min":0,"x_max":463,"o":"m 463 1042 l 463 926 l 347 926 l 347 1042 l 347 1157 l 463 1157 l 463 1042 m 231 694 l 231 579 l 231 463 l 231 347 l 231 231 l 231 116 l 231 0 l 231 -116 l 116 -116 l 116 0 l 116 116 l 116 231 l 116 347 l 116 463 l 116 579 l 116 694 l 116 810 l 231 810 l 231 694 m 116 1042 l 116 926 l 0 926 l 0 1042 l 0 1157 l 116 1157 l 116 1042 z "},"Ð":{"ha":1042,"x_min":0,"x_max":926,"o":"m 0 347 l 0 463 l 116 463 l 116 579 l 116 694 l 116 810 l 116 926 l 694 926 l 694 810 l 810 810 l 810 694 l 926 694 l 926 579 l 926 463 l 926 347 l 926 231 l 926 116 l 810 116 l 810 231 l 810 347 l 810 463 l 810 579 l 810 694 l 694 694 l 694 810 l 231 810 l 231 694 l 231 579 l 231 463 l 579 463 l 579 347 l 231 347 l 231 231 l 231 116 l 231 0 l 694 0 l 694 116 l 810 116 l 810 0 l 694 0 l 694 -116 l 116 -116 l 116 0 l 116 116 l 116 231 l 116 347 l 0 347 z "},"Ñ":{"ha":926,"x_min":0,"x_max":810,"o":"m 116 926 l 116 1042 l 231 1042 l 231 1157 l 463 1157 l 463 1042 l 694 1042 l 694 1157 l 810 1157 l 810 1042 l 694 1042 l 694 926 l 463 926 l 463 1042 l 231 1042 l 231 926 l 116 926 m 810 694 l 810 579 l 810 463 l 810 347 l 810 231 l 810 116 l 810 0 l 810 -116 l 694 -116 l 694 0 l 694 116 l 579 116 l 579 231 l 694 231 l 694 347 l 694 463 l 694 579 l 694 694 l 694 810 l 810 810 l 810 694 m 579 231 l 463 231 l 463 347 l 579 347 l 579 231 m 463 347 l 347 347 l 347 463 l 463 463 l 463 347 m 347 463 l 231 463 l 231 579 l 347 579 l 347 463 m 231 579 l 116 579 l 116 463 l 116 347 l 116 231 l 116 116 l 116 0 l 116 -116 l 0 -116 l 0 0 l 0 116 l 0 231 l 0 347 l 0 463 l 0 579 l 0 694 l 0 810 l 116 810 l 116 694 l 231 694 l 231 579 z "},"Ò":{"ha":926,"x_min":0,"x_max":810,"o":"m 231 1042 l 231 1157 l 347 1157 l 347 1042 l 463 1042 l 463 926 l 347 926 l 347 1042 l 231 1042 m 810 463 l 810 347 l 810 231 l 810 116 l 694 116 l 694 231 l 694 347 l 694 463 l 694 579 l 810 579 l 810 463 m 694 579 l 579 579 l 579 694 l 694 694 l 694 579 m 694 116 l 694 0 l 579 0 l 579 116 l 694 116 m 579 694 l 231 694 l 231 810 l 579 810 l 579 694 m 579 0 l 579 -116 l 231 -116 l 231 0 l 579 0 m 231 694 l 231 579 l 116 579 l 116 694 l 231 694 m 231 0 l 116 0 l 116 116 l 231 116 l 231 0 m 116 579 l 116 463 l 116 347 l 116 231 l 116 116 l 0 116 l 0 231 l 0 347 l 0 463 l 0 579 l 116 579 z "},"Ó":{"ha":926,"x_min":0,"x_max":810,"o":"m 347 926 l 347 1042 l 463 1042 l 463 1157 l 579 1157 l 579 1042 l 463 1042 l 463 926 l 347 926 m 810 463 l 810 347 l 810 231 l 810 116 l 694 116 l 694 231 l 694 347 l 694 463 l 694 579 l 810 579 l 810 463 m 694 579 l 579 579 l 579 694 l 694 694 l 694 579 m 694 116 l 694 0 l 579 0 l 579 116 l 694 116 m 579 694 l 231 694 l 231 810 l 579 810 l 579 694 m 579 0 l 579 -116 l 231 -116 l 231 0 l 579 0 m 231 694 l 231 579 l 116 579 l 116 694 l 231 694 m 231 0 l 116 0 l 116 116 l 231 116 l 231 0 m 116 579 l 116 463 l 116 347 l 116 231 l 116 116 l 0 116 l 0 231 l 0 347 l 0 463 l 0 579 l 116 579 z "},"Ô":{"ha":926,"x_min":0,"x_max":810,"o":"m 231 926 l 231 1042 l 347 1042 l 347 1157 l 463 1157 l 463 1042 l 579 1042 l 579 926 l 463 926 l 463 1042 l 347 1042 l 347 926 l 231 926 m 810 463 l 810 347 l 810 231 l 810 116 l 694 116 l 694 231 l 694 347 l 694 463 l 694 579 l 810 579 l 810 463 m 694 579 l 579 579 l 579 694 l 694 694 l 694 579 m 694 116 l 694 0 l 579 0 l 579 116 l 694 116 m 579 694 l 231 694 l 231 810 l 579 810 l 579 694 m 579 0 l 579 -116 l 231 -116 l 231 0 l 579 0 m 231 694 l 231 579 l 116 579 l 116 694 l 231 694 m 231 0 l 116 0 l 116 116 l 231 116 l 231 0 m 116 579 l 116 463 l 116 347 l 116 231 l 116 116 l 0 116 l 0 231 l 0 347 l 0 463 l 0 579 l 116 579 z "},"Õ":{"ha":926,"x_min":0,"x_max":810,"o":"m 116 926 l 116 1042 l 231 1042 l 231 1157 l 463 1157 l 463 1042 l 694 1042 l 694 1157 l 810 1157 l 810 1042 l 694 1042 l 694 926 l 463 926 l 463 1042 l 231 1042 l 231 926 l 116 926 m 810 463 l 810 347 l 810 231 l 810 116 l 694 116 l 694 231 l 694 347 l 694 463 l 694 579 l 810 579 l 810 463 m 694 579 l 579 579 l 579 694 l 694 694 l 694 579 m 694 116 l 694 0 l 579 0 l 579 116 l 694 116 m 579 694 l 231 694 l 231 810 l 579 810 l 579 694 m 579 0 l 579 -116 l 231 -116 l 231 0 l 579 0 m 231 694 l 231 579 l 116 579 l 116 694 l 231 694 m 231 0 l 116 0 l 116 116 l 231 116 l 231 0 m 116 579 l 116 463 l 116 347 l 116 231 l 116 116 l 0 116 l 0 231 l 0 347 l 0 463 l 0 579 l 116 579 z "},"Ö":{"ha":926,"x_min":0,"x_max":810,"o":"m 810 463 l 810 347 l 810 231 l 810 116 l 694 116 l 694 231 l 694 347 l 694 463 l 694 579 l 810 579 l 810 463 m 694 1042 l 694 926 l 579 926 l 579 1042 l 579 1157 l 694 1157 l 694 1042 m 694 579 l 579 579 l 579 694 l 694 694 l 694 579 m 694 116 l 694 0 l 579 0 l 579 116 l 694 116 m 347 1042 l 347 926 l 231 926 l 231 1042 l 231 1157 l 347 1157 l 347 1042 m 579 694 l 231 694 l 231 810 l 579 810 l 579 694 m 579 0 l 579 -116 l 231 -116 l 231 0 l 579 0 m 231 694 l 231 579 l 116 579 l 116 694 l 231 694 m 231 0 l 116 0 l 116 116 l 231 116 l 231 0 m 116 579 l 116 463 l 116 347 l 116 231 l 116 116 l 0 116 l 0 231 l 0 347 l 0 463 l 0 579 l 116 579 z "},"×":{"ha":926,"x_min":0,"x_max":810,"o":"m 0 694 l 0 810 l 116 810 l 116 694 l 231 694 l 231 579 l 347 579 l 347 463 l 463 463 l 463 579 l 579 579 l 579 694 l 694 694 l 694 810 l 810 810 l 810 694 l 694 694 l 694 579 l 579 579 l 579 463 l 463 463 l 463 347 l 579 347 l 579 231 l 694 231 l 694 116 l 810 116 l 810 0 l 694 0 l 694 116 l 579 116 l 579 231 l 463 231 l 463 347 l 347 347 l 347 463 l 231 463 l 231 579 l 116 579 l 116 694 l 0 694 m 0 0 l 0 116 l 116 116 l 116 231 l 231 231 l 231 347 l 347 347 l 347 231 l 231 231 l 231 116 l 116 116 l 116 0 l 0 0 z "},"Ø":{"ha":1157,"x_min":0,"x_max":1042,"o":"m 926 926 l 926 1042 l 1042 1042 l 1042 926 l 926 926 m 926 926 l 926 810 l 810 810 l 810 926 l 926 926 m 926 463 l 926 347 l 926 231 l 926 116 l 810 116 l 810 231 l 810 347 l 810 463 l 810 579 l 694 579 l 694 694 l 694 810 l 810 810 l 810 694 l 926 694 l 926 579 l 926 463 m 810 116 l 810 0 l 694 0 l 694 116 l 810 116 m 694 579 l 694 463 l 579 463 l 579 579 l 694 579 m 579 463 l 579 347 l 463 347 l 463 463 l 579 463 m 694 810 l 347 810 l 347 926 l 694 926 l 694 810 m 463 347 l 463 231 l 347 231 l 347 347 l 463 347 m 694 0 l 694 -116 l 347 -116 l 347 0 l 694 0 m 347 810 l 347 694 l 231 694 l 231 810 l 347 810 m 347 0 l 231 0 l 231 116 l 116 116 l 116 231 l 116 347 l 116 463 l 116 579 l 116 694 l 231 694 l 231 579 l 231 463 l 231 347 l 231 231 l 347 231 l 347 116 l 347 0 m 231 0 l 231 -116 l 116 -116 l 116 0 l 231 0 m 116 -116 l 116 -231 l 0 -231 l 0 -116 l 116 -116 z "},"Ù":{"ha":926,"x_min":0,"x_max":810,"o":"m 231 1042 l 231 1157 l 347 1157 l 347 1042 l 463 1042 l 463 926 l 347 926 l 347 1042 l 231 1042 m 810 694 l 810 579 l 810 463 l 810 347 l 810 231 l 810 116 l 694 116 l 694 231 l 694 347 l 694 463 l 694 579 l 694 694 l 694 810 l 810 810 l 810 694 m 694 116 l 694 0 l 579 0 l 579 116 l 694 116 m 579 0 l 579 -116 l 231 -116 l 231 0 l 579 0 m 231 0 l 116 0 l 116 116 l 231 116 l 231 0 m 116 694 l 116 579 l 116 463 l 116 347 l 116 231 l 116 116 l 0 116 l 0 231 l 0 347 l 0 463 l 0 579 l 0 694 l 0 810 l 116 810 l 116 694 z "},"Ú":{"ha":926,"x_min":0,"x_max":810,"o":"m 347 926 l 347 1042 l 463 1042 l 463 1157 l 579 1157 l 579 1042 l 463 1042 l 463 926 l 347 926 m 810 694 l 810 579 l 810 463 l 810 347 l 810 231 l 810 116 l 694 116 l 694 231 l 694 347 l 694 463 l 694 579 l 694 694 l 694 810 l 810 810 l 810 694 m 694 116 l 694 0 l 579 0 l 579 116 l 694 116 m 579 0 l 579 -116 l 231 -116 l 231 0 l 579 0 m 231 0 l 116 0 l 116 116 l 231 116 l 231 0 m 116 694 l 116 579 l 116 463 l 116 347 l 116 231 l 116 116 l 0 116 l 0 231 l 0 347 l 0 463 l 0 579 l 0 694 l 0 810 l 116 810 l 116 694 z "},"Û":{"ha":926,"x_min":0,"x_max":810,"o":"m 231 926 l 231 1042 l 347 1042 l 347 1157 l 463 1157 l 463 1042 l 579 1042 l 579 926 l 463 926 l 463 1042 l 347 1042 l 347 926 l 231 926 m 810 694 l 810 579 l 810 463 l 810 347 l 810 231 l 810 116 l 694 116 l 694 231 l 694 347 l 694 463 l 694 579 l 694 694 l 694 810 l 810 810 l 810 694 m 694 116 l 694 0 l 579 0 l 579 116 l 694 116 m 579 0 l 579 -116 l 231 -116 l 231 0 l 579 0 m 231 0 l 116 0 l 116 116 l 231 116 l 231 0 m 116 694 l 116 579 l 116 463 l 116 347 l 116 231 l 116 116 l 0 116 l 0 231 l 0 347 l 0 463 l 0 579 l 0 694 l 0 810 l 116 810 l 116 694 z "},"Ü":{"ha":926,"x_min":0,"x_max":810,"o":"m 810 694 l 810 579 l 810 463 l 810 347 l 810 231 l 810 116 l 694 116 l 694 231 l 694 347 l 694 463 l 694 579 l 694 694 l 694 810 l 810 810 l 810 694 m 694 1042 l 694 926 l 579 926 l 579 1042 l 579 1157 l 694 1157 l 694 1042 m 694 116 l 694 0 l 579 0 l 579 116 l 694 116 m 347 1042 l 347 926 l 231 926 l 231 1042 l 231 1157 l 347 1157 l 347 1042 m 579 0 l 579 -116 l 231 -116 l 231 0 l 579 0 m 231 0 l 116 0 l 116 116 l 231 116 l 231 0 m 116 694 l 116 579 l 116 463 l 116 347 l 116 231 l 116 116 l 0 116 l 0 231 l 0 347 l 0 463 l 0 579 l 0 694 l 0 810 l 116 810 l 116 694 z "},"Ý":{"ha":926,"x_min":0,"x_max":810,"o":"m 347 926 l 347 1042 l 463 1042 l 463 1157 l 579 1157 l 579 1042 l 463 1042 l 463 926 l 347 926 m 810 694 l 810 579 l 694 579 l 694 694 l 694 810 l 810 810 l 810 694 m 694 579 l 694 463 l 579 463 l 579 579 l 694 579 m 579 463 l 579 347 l 463 347 l 463 463 l 579 463 m 463 347 l 463 231 l 463 116 l 463 0 l 463 -116 l 347 -116 l 347 0 l 347 116 l 347 231 l 347 347 l 463 347 m 347 347 l 231 347 l 231 463 l 347 463 l 347 347 m 231 463 l 116 463 l 116 579 l 231 579 l 231 463 m 116 579 l 0 579 l 0 694 l 0 810 l 116 810 l 116 694 l 116 579 z "},"Þ":{"ha":810,"x_min":0,"x_max":694,"o":"m 694 579 l 694 463 l 694 347 l 579 347 l 579 463 l 579 579 l 579 694 l 694 694 l 694 579 m 116 926 l 116 810 l 579 810 l 579 694 l 116 694 l 116 579 l 116 463 l 116 347 l 579 347 l 579 231 l 116 231 l 116 116 l 116 0 l 116 -116 l 0 -116 l 0 0 l 0 116 l 0 231 l 0 347 l 0 463 l 0 579 l 0 694 l 0 810 l 0 926 l 0 1042 l 116 1042 l 116 926 z "},"ß":{"ha":694,"x_min":0,"x_max":579,"o":"m 579 579 l 579 463 l 463 463 l 463 579 l 463 694 l 579 694 l 579 579 m 579 231 l 579 116 l 579 0 l 463 0 l 463 116 l 463 231 l 463 347 l 579 347 l 579 231 m 463 694 l 116 694 l 116 810 l 463 810 l 463 694 m 116 694 l 116 579 l 116 463 l 463 463 l 463 347 l 116 347 l 116 231 l 116 116 l 116 0 l 463 0 l 463 -116 l 116 -116 l 116 -231 l 116 -347 l 116 -463 l 0 -463 l 0 -347 l 0 -231 l 0 -116 l 0 0 l 0 116 l 0 231 l 0 347 l 0 463 l 0 579 l 0 694 l 116 694 z "},"à":{"ha":694,"x_min":0,"x_max":579,"o":"m 116 810 l 116 926 l 231 926 l 231 810 l 347 810 l 347 694 l 231 694 l 231 810 l 116 810 m 116 463 l 116 579 l 463 579 l 463 463 l 579 463 l 579 347 l 579 231 l 579 116 l 579 0 l 579 -116 l 116 -116 l 116 0 l 463 0 l 463 116 l 463 231 l 116 231 l 116 347 l 463 347 l 463 463 l 116 463 m 116 231 l 116 116 l 116 0 l 0 0 l 0 116 l 0 231 l 116 231 z "},"á":{"ha":694,"x_min":0,"x_max":579,"o":"m 231 694 l 231 810 l 347 810 l 347 926 l 463 926 l 463 810 l 347 810 l 347 694 l 231 694 m 116 463 l 116 579 l 463 579 l 463 463 l 579 463 l 579 347 l 579 231 l 579 116 l 579 0 l 579 -116 l 116 -116 l 116 0 l 463 0 l 463 116 l 463 231 l 116 231 l 116 347 l 463 347 l 463 463 l 116 463 m 116 231 l 116 116 l 116 0 l 0 0 l 0 116 l 0 231 l 116 231 z "},"â":{"ha":694,"x_min":0,"x_max":579,"o":"m 116 694 l 116 810 l 231 810 l 231 926 l 347 926 l 347 810 l 463 810 l 463 694 l 347 694 l 347 810 l 231 810 l 231 694 l 116 694 m 116 463 l 116 579 l 463 579 l 463 463 l 579 463 l 579 347 l 579 231 l 579 116 l 579 0 l 579 -116 l 116 -116 l 116 0 l 463 0 l 463 116 l 463 231 l 116 231 l 116 347 l 463 347 l 463 463 l 116 463 m 116 231 l 116 116 l 116 0 l 0 0 l 0 116 l 0 231 l 116 231 z "},"ã":{"ha":694,"x_min":0,"x_max":694,"o":"m 116 463 l 116 579 l 463 579 l 463 463 l 579 463 l 579 347 l 579 231 l 579 116 l 579 0 l 579 -116 l 116 -116 l 116 0 l 463 0 l 463 116 l 463 231 l 116 231 l 116 347 l 463 347 l 463 463 l 116 463 m 0 926 l 0 1042 l 116 1042 l 116 1157 l 347 1157 l 347 1042 l 579 1042 l 579 1157 l 694 1157 l 694 1042 l 579 1042 l 579 926 l 347 926 l 347 1042 l 116 1042 l 116 926 l 0 926 m 116 231 l 116 116 l 116 0 l 0 0 l 0 116 l 0 231 l 116 231 z "},"ä":{"ha":694,"x_min":0,"x_max":579,"o":"m 116 463 l 116 579 l 463 579 l 463 463 l 579 463 l 579 347 l 579 231 l 579 116 l 579 0 l 579 -116 l 116 -116 l 116 0 l 463 0 l 463 116 l 463 231 l 116 231 l 116 347 l 463 347 l 463 463 l 116 463 m 579 1042 l 579 926 l 463 926 l 463 1042 l 463 1157 l 579 1157 l 579 1042 m 231 1042 l 231 926 l 116 926 l 116 1042 l 116 1157 l 231 1157 l 231 1042 m 116 231 l 116 116 l 116 0 l 0 0 l 0 116 l 0 231 l 116 231 z "},"å":{"ha":694,"x_min":0,"x_max":579,"o":"m 116 463 l 116 579 l 463 579 l 463 463 l 579 463 l 579 347 l 579 231 l 579 116 l 579 0 l 579 -116 l 116 -116 l 116 0 l 463 0 l 463 116 l 463 231 l 116 231 l 116 347 l 463 347 l 463 463 l 116 463 m 579 926 l 579 810 l 463 810 l 463 926 l 463 1042 l 579 1042 l 579 926 m 463 1042 l 231 1042 l 231 1157 l 463 1157 l 463 1042 m 463 810 l 463 694 l 231 694 l 231 810 l 463 810 m 231 1042 l 231 926 l 231 810 l 116 810 l 116 926 l 116 1042 l 231 1042 m 116 231 l 116 116 l 116 0 l 0 0 l 0 116 l 0 231 l 116 231 z "},"æ":{"ha":1157,"x_min":0,"x_max":1042,"o":"m 116 463 l 116 579 l 926 579 l 926 463 l 1042 463 l 1042 347 l 1042 231 l 579 231 l 579 116 l 579 0 l 926 0 l 926 116 l 1042 116 l 1042 0 l 926 0 l 926 -116 l 579 -116 l 579 0 l 463 0 l 463 116 l 463 231 l 116 231 l 116 347 l 463 347 l 463 463 l 116 463 m 579 463 l 579 347 l 926 347 l 926 463 l 579 463 m 463 0 l 463 -116 l 116 -116 l 116 0 l 463 0 m 116 231 l 116 116 l 116 0 l 0 0 l 0 116 l 0 231 l 116 231 z "},"ç":{"ha":694,"x_min":0,"x_max":579,"o":"m 463 463 l 579 463 l 579 347 l 463 347 l 463 463 m 463 463 l 116 463 l 116 579 l 463 579 l 463 463 m 231 -231 l 231 -116 l 116 -116 l 116 0 l 463 0 l 463 116 l 579 116 l 579 0 l 463 0 l 463 -116 l 347 -116 l 347 -231 l 231 -231 m 231 -231 l 231 -347 l 116 -347 l 116 -231 l 231 -231 m 116 463 l 116 347 l 116 231 l 116 116 l 116 0 l 0 0 l 0 116 l 0 231 l 0 347 l 0 463 l 116 463 z "},"è":{"ha":694,"x_min":0,"x_max":579,"o":"m 116 810 l 116 926 l 231 926 l 231 810 l 347 810 l 347 694 l 231 694 l 231 810 l 116 810 m 463 463 l 579 463 l 579 347 l 579 231 l 116 231 l 116 116 l 116 0 l 463 0 l 463 116 l 579 116 l 579 0 l 463 0 l 463 -116 l 116 -116 l 116 0 l 0 0 l 0 116 l 0 231 l 0 347 l 0 463 l 116 463 l 116 579 l 463 579 l 463 463 m 463 463 l 116 463 l 116 347 l 463 347 l 463 463 z "},"é":{"ha":694,"x_min":0,"x_max":579,"o":"m 231 694 l 231 810 l 347 810 l 347 926 l 463 926 l 463 810 l 347 810 l 347 694 l 231 694 m 463 463 l 579 463 l 579 347 l 579 231 l 116 231 l 116 116 l 116 0 l 463 0 l 463 116 l 579 116 l 579 0 l 463 0 l 463 -116 l 116 -116 l 116 0 l 0 0 l 0 116 l 0 231 l 0 347 l 0 463 l 116 463 l 116 579 l 463 579 l 463 463 m 463 463 l 116 463 l 116 347 l 463 347 l 463 463 z "},"ê":{"ha":694,"x_min":0,"x_max":579,"o":"m 116 694 l 116 810 l 231 810 l 231 926 l 347 926 l 347 810 l 463 810 l 463 694 l 347 694 l 347 810 l 231 810 l 231 694 l 116 694 m 463 463 l 579 463 l 579 347 l 579 231 l 116 231 l 116 116 l 116 0 l 463 0 l 463 116 l 579 116 l 579 0 l 463 0 l 463 -116 l 116 -116 l 116 0 l 0 0 l 0 116 l 0 231 l 0 347 l 0 463 l 116 463 l 116 579 l 463 579 l 463 463 m 463 463 l 116 463 l 116 347 l 463 347 l 463 463 z "},"ë":{"ha":694,"x_min":0,"x_max":579,"o":"m 579 1042 l 579 926 l 463 926 l 463 1042 l 463 1157 l 579 1157 l 579 1042 m 231 1042 l 231 926 l 116 926 l 116 1042 l 116 1157 l 231 1157 l 231 1042 m 463 463 l 579 463 l 579 347 l 579 231 l 116 231 l 116 116 l 116 0 l 463 0 l 463 116 l 579 116 l 579 0 l 463 0 l 463 -116 l 116 -116 l 116 0 l 0 0 l 0 116 l 0 231 l 0 347 l 0 463 l 116 463 l 116 579 l 463 579 l 463 463 m 463 463 l 116 463 l 116 347 l 463 347 l 463 463 z "},"ì":{"ha":463,"x_min":0,"x_max":231,"o":"m 0 926 l 0 1042 l 116 1042 l 116 926 l 231 926 l 231 810 l 116 810 l 116 926 l 0 926 m 231 463 l 231 347 l 231 231 l 231 116 l 231 0 l 231 -116 l 116 -116 l 116 0 l 116 116 l 116 231 l 116 347 l 116 463 l 116 579 l 231 579 l 231 463 z "},"í":{"ha":463,"x_min":116,"x_max":347,"o":"m 116 810 l 116 926 l 231 926 l 231 1042 l 347 1042 l 347 926 l 231 926 l 231 810 l 116 810 m 231 463 l 231 347 l 231 231 l 231 116 l 231 0 l 231 -116 l 116 -116 l 116 0 l 116 116 l 116 231 l 116 347 l 116 463 l 116 579 l 231 579 l 231 463 z "},"î":{"ha":463,"x_min":0,"x_max":347,"o":"m 0 810 l 0 926 l 116 926 l 116 1042 l 231 1042 l 231 926 l 347 926 l 347 810 l 231 810 l 231 926 l 116 926 l 116 810 l 0 810 m 231 463 l 231 347 l 231 231 l 231 116 l 231 0 l 231 -116 l 116 -116 l 116 0 l 116 116 l 116 231 l 116 347 l 116 463 l 116 579 l 231 579 l 231 463 z "},"ï":{"ha":463,"x_min":0,"x_max":463,"o":"m 463 1042 l 463 926 l 347 926 l 347 1042 l 347 1157 l 463 1157 l 463 1042 m 231 463 l 231 347 l 231 231 l 231 116 l 231 0 l 231 -116 l 116 -116 l 116 0 l 116 116 l 116 231 l 116 347 l 116 463 l 116 579 l 231 579 l 231 463 m 116 1042 l 116 926 l 0 926 l 0 1042 l 0 1157 l 116 1157 l 116 1042 z "},"ð":{"ha":694,"x_min":0,"x_max":579,"o":"m 0 926 l 0 1042 l 231 1042 l 231 926 l 579 926 l 579 810 l 347 810 l 347 694 l 463 694 l 463 579 l 463 463 l 579 463 l 579 347 l 579 231 l 579 116 l 579 0 l 463 0 l 463 116 l 463 231 l 463 347 l 463 463 l 116 463 l 116 579 l 347 579 l 347 694 l 0 694 l 0 810 l 231 810 l 231 926 l 0 926 m 463 0 l 463 -116 l 116 -116 l 116 0 l 463 0 m 116 463 l 116 347 l 116 231 l 116 116 l 116 0 l 0 0 l 0 116 l 0 231 l 0 347 l 0 463 l 116 463 z "},"ñ":{"ha":694,"x_min":0,"x_max":694,"o":"m 0 926 l 0 1042 l 116 1042 l 116 1157 l 347 1157 l 347 1042 l 579 1042 l 579 1157 l 694 1157 l 694 1042 l 579 1042 l 579 926 l 347 926 l 347 1042 l 116 1042 l 116 926 l 0 926 m 579 347 l 579 231 l 579 116 l 579 0 l 579 -116 l 463 -116 l 463 0 l 463 116 l 463 231 l 463 347 l 463 463 l 579 463 l 579 347 m 463 463 l 231 463 l 231 579 l 463 579 l 463 463 m 116 463 l 231 463 l 231 347 l 116 347 l 116 231 l 116 116 l 116 0 l 116 -116 l 0 -116 l 0 0 l 0 116 l 0 231 l 0 347 l 0 463 l 0 579 l 116 579 l 116 463 z "},"ò":{"ha":694,"x_min":0,"x_max":579,"o":"m 116 810 l 116 926 l 231 926 l 231 810 l 347 810 l 347 694 l 231 694 l 231 810 l 116 810 m 579 347 l 579 231 l 579 116 l 579 0 l 463 0 l 463 116 l 463 231 l 463 347 l 463 463 l 579 463 l 579 347 m 463 463 l 116 463 l 116 579 l 463 579 l 463 463 m 463 0 l 463 -116 l 116 -116 l 116 0 l 463 0 m 116 463 l 116 347 l 116 231 l 116 116 l 116 0 l 0 0 l 0 116 l 0 231 l 0 347 l 0 463 l 116 463 z "},"ó":{"ha":694,"x_min":0,"x_max":579,"o":"m 231 694 l 231 810 l 347 810 l 347 926 l 463 926 l 463 810 l 347 810 l 347 694 l 231 694 m 579 347 l 579 231 l 579 116 l 579 0 l 463 0 l 463 116 l 463 231 l 463 347 l 463 463 l 579 463 l 579 347 m 463 463 l 116 463 l 116 579 l 463 579 l 463 463 m 463 0 l 463 -116 l 116 -116 l 116 0 l 463 0 m 116 463 l 116 347 l 116 231 l 116 116 l 116 0 l 0 0 l 0 116 l 0 231 l 0 347 l 0 463 l 116 463 z "},"ô":{"ha":694,"x_min":0,"x_max":579,"o":"m 116 694 l 116 810 l 231 810 l 231 926 l 347 926 l 347 810 l 463 810 l 463 694 l 347 694 l 347 810 l 231 810 l 231 694 l 116 694 m 579 347 l 579 231 l 579 116 l 579 0 l 463 0 l 463 116 l 463 231 l 463 347 l 463 463 l 579 463 l 579 347 m 463 463 l 116 463 l 116 579 l 463 579 l 463 463 m 463 0 l 463 -116 l 116 -116 l 116 0 l 463 0 m 116 463 l 116 347 l 116 231 l 116 116 l 116 0 l 0 0 l 0 116 l 0 231 l 0 347 l 0 463 l 116 463 z "},"õ":{"ha":694,"x_min":0,"x_max":694,"o":"m 0 926 l 0 1042 l 116 1042 l 116 1157 l 347 1157 l 347 1042 l 579 1042 l 579 1157 l 694 1157 l 694 1042 l 579 1042 l 579 926 l 347 926 l 347 1042 l 116 1042 l 116 926 l 0 926 m 579 347 l 579 231 l 579 116 l 579 0 l 463 0 l 463 116 l 463 231 l 463 347 l 463 463 l 579 463 l 579 347 m 463 463 l 116 463 l 116 579 l 463 579 l 463 463 m 463 0 l 463 -116 l 116 -116 l 116 0 l 463 0 m 116 463 l 116 347 l 116 231 l 116 116 l 116 0 l 0 0 l 0 116 l 0 231 l 0 347 l 0 463 l 116 463 z "},"ö":{"ha":694,"x_min":0,"x_max":579,"o":"m 579 1042 l 579 926 l 463 926 l 463 1042 l 463 1157 l 579 1157 l 579 1042 m 579 347 l 579 231 l 579 116 l 579 0 l 463 0 l 463 116 l 463 231 l 463 347 l 463 463 l 579 463 l 579 347 m 231 1042 l 231 926 l 116 926 l 116 1042 l 116 1157 l 231 1157 l 231 1042 m 463 463 l 116 463 l 116 579 l 463 579 l 463 463 m 463 0 l 463 -116 l 116 -116 l 116 0 l 463 0 m 116 463 l 116 347 l 116 231 l 116 116 l 116 0 l 0 0 l 0 116 l 0 231 l 0 347 l 0 463 l 116 463 z "},"÷":{"ha":1157,"x_min":0,"x_max":1042,"o":"m 347 694 l 347 810 l 463 810 l 463 926 l 579 926 l 579 810 l 694 810 l 694 694 l 579 694 l 579 579 l 463 579 l 463 694 l 347 694 m 347 0 l 347 116 l 463 116 l 463 231 l 579 231 l 579 116 l 694 116 l 694 0 l 579 0 l 579 -116 l 463 -116 l 463 0 l 347 0 m 0 347 l 0 463 l 1042 463 l 1042 347 l 0 347 z "},"ø":{"ha":694,"x_min":0,"x_max":579,"o":"m 579 231 l 579 116 l 579 0 l 463 0 l 463 116 l 463 231 l 463 347 l 347 347 l 347 463 l 116 463 l 116 579 l 463 579 l 463 694 l 579 694 l 579 579 l 463 579 l 463 463 l 579 463 l 579 347 l 579 231 m 347 347 l 347 231 l 347 116 l 231 116 l 231 231 l 231 347 l 347 347 m 463 0 l 463 -116 l 116 -116 l 116 0 l 0 0 l 0 116 l 0 231 l 0 347 l 0 463 l 116 463 l 116 347 l 116 231 l 116 116 l 231 116 l 231 0 l 463 0 m 116 -116 l 116 -231 l 0 -231 l 0 -116 l 116 -116 z "},"ù":{"ha":694,"x_min":0,"x_max":579,"o":"m 116 810 l 116 926 l 231 926 l 231 810 l 347 810 l 347 694 l 231 694 l 231 810 l 116 810 m 579 463 l 579 347 l 579 231 l 579 116 l 579 0 l 579 -116 l 463 -116 l 463 0 l 347 0 l 347 116 l 463 116 l 463 231 l 463 347 l 463 463 l 463 579 l 579 579 l 579 463 m 347 0 l 347 -116 l 116 -116 l 116 0 l 347 0 m 116 463 l 116 347 l 116 231 l 116 116 l 116 0 l 0 0 l 0 116 l 0 231 l 0 347 l 0 463 l 0 579 l 116 579 l 116 463 z "},"ú":{"ha":694,"x_min":0,"x_max":579,"o":"m 231 694 l 231 810 l 347 810 l 347 926 l 463 926 l 463 810 l 347 810 l 347 694 l 231 694 m 579 463 l 579 347 l 579 231 l 579 116 l 579 0 l 579 -116 l 463 -116 l 463 0 l 347 0 l 347 116 l 463 116 l 463 231 l 463 347 l 463 463 l 463 579 l 579 579 l 579 463 m 347 0 l 347 -116 l 116 -116 l 116 0 l 347 0 m 116 463 l 116 347 l 116 231 l 116 116 l 116 0 l 0 0 l 0 116 l 0 231 l 0 347 l 0 463 l 0 579 l 116 579 l 116 463 z "},"û":{"ha":694,"x_min":0,"x_max":579,"o":"m 116 694 l 116 810 l 231 810 l 231 926 l 347 926 l 347 810 l 463 810 l 463 694 l 347 694 l 347 810 l 231 810 l 231 694 l 116 694 m 579 463 l 579 347 l 579 231 l 579 116 l 579 0 l 579 -116 l 463 -116 l 463 0 l 347 0 l 347 116 l 463 116 l 463 231 l 463 347 l 463 463 l 463 579 l 579 579 l 579 463 m 347 0 l 347 -116 l 116 -116 l 116 0 l 347 0 m 116 463 l 116 347 l 116 231 l 116 116 l 116 0 l 0 0 l 0 116 l 0 231 l 0 347 l 0 463 l 0 579 l 116 579 l 116 463 z "},"ü":{"ha":694,"x_min":0,"x_max":579,"o":"m 579 1042 l 579 926 l 463 926 l 463 1042 l 463 1157 l 579 1157 l 579 1042 m 579 463 l 579 347 l 579 231 l 579 116 l 579 0 l 579 -116 l 463 -116 l 463 0 l 347 0 l 347 116 l 463 116 l 463 231 l 463 347 l 463 463 l 463 579 l 579 579 l 579 463 m 231 1042 l 231 926 l 116 926 l 116 1042 l 116 1157 l 231 1157 l 231 1042 m 347 0 l 347 -116 l 116 -116 l 116 0 l 347 0 m 116 463 l 116 347 l 116 231 l 116 116 l 116 0 l 0 0 l 0 116 l 0 231 l 0 347 l 0 463 l 0 579 l 116 579 l 116 463 z "},"ý":{"ha":694,"x_min":0,"x_max":579,"o":"m 231 926 l 231 1042 l 347 1042 l 347 1157 l 463 1157 l 463 1042 l 347 1042 l 347 926 l 231 926 m 0 -231 l 116 -231 l 116 -347 l 463 -347 l 463 -231 l 463 -116 l 116 -116 l 116 0 l 463 0 l 463 116 l 463 231 l 463 347 l 463 463 l 463 579 l 579 579 l 579 463 l 579 347 l 579 231 l 579 116 l 579 0 l 579 -116 l 579 -231 l 579 -347 l 463 -347 l 463 -463 l 116 -463 l 116 -347 l 0 -347 l 0 -231 m 116 463 l 116 347 l 116 231 l 116 116 l 116 0 l 0 0 l 0 116 l 0 231 l 0 347 l 0 463 l 0 579 l 116 579 l 116 463 z "},"þ":{"ha":694,"x_min":0,"x_max":579,"o":"m 579 347 l 579 231 l 579 116 l 579 0 l 463 0 l 463 116 l 463 231 l 463 347 l 463 463 l 579 463 l 579 347 m 116 694 l 116 579 l 463 579 l 463 463 l 116 463 l 116 347 l 116 231 l 116 116 l 116 0 l 463 0 l 463 -116 l 116 -116 l 116 -231 l 116 -347 l 116 -463 l 0 -463 l 0 -347 l 0 -231 l 0 -116 l 0 0 l 0 116 l 0 231 l 0 347 l 0 463 l 0 579 l 0 694 l 0 810 l 116 810 l 116 694 z "},"ÿ":{"ha":694,"x_min":0,"x_max":579,"o":"m 0 -231 l 116 -231 l 116 -347 l 463 -347 l 463 -231 l 463 -116 l 116 -116 l 116 0 l 463 0 l 463 116 l 463 231 l 463 347 l 463 463 l 463 579 l 579 579 l 579 463 l 579 347 l 579 231 l 579 116 l 579 0 l 579 -116 l 579 -231 l 579 -347 l 463 -347 l 463 -463 l 116 -463 l 116 -347 l 0 -347 l 0 -231 m 579 1042 l 579 926 l 463 926 l 463 1042 l 463 1157 l 579 1157 l 579 1042 m 231 1042 l 231 926 l 116 926 l 116 1042 l 116 1157 l 231 1157 l 231 1042 m 116 463 l 116 347 l 116 231 l 116 116 l 116 0 l 0 0 l 0 116 l 0 231 l 0 347 l 0 463 l 0 579 l 116 579 l 116 463 z "}}}
